<svg width="92" height="81" viewBox="0 0 92 81" fill="none" xmlns="http://www.w3.org/2000/svg">
<path d="M92 0.776393L89.6289 17.0718C84.7812 16.654 80.9347 17.4896 78.0893 19.5788C75.244 21.5635 73.2944 24.4361 72.2405 28.1966C71.2921 31.8526 71.134 36.0309 71.7663 40.7315H92V81H52.9553V39.1646C52.9553 25.4807 56.2222 15.1393 62.756 8.14068C69.2898 1.03754 79.0378 -1.41722 92 0.776393ZM39.0447 0.776393L36.6735 17.0718C31.8259 16.654 27.9794 17.4896 25.134 19.5788C22.2887 21.5635 20.3391 24.4361 19.2852 28.1966C18.3368 31.8526 18.1787 36.0309 18.811 40.7315H39.0447V81H0V39.1646C0 25.4807 3.2669 15.1393 9.80069 8.14068C16.3345 1.03754 26.0825 -1.41722 39.0447 0.776393Z" fill="white" fill-opacity="0.2"/>
</svg>
