<svg width="92" height="81" viewBox="0 0 92 81" fill="none" xmlns="http://www.w3.org/2000/svg">
<path d="M0 80.2236L2.37113 63.9282C7.21879 64.346 11.0653 63.5104 13.9107 61.4212C16.756 59.4365 18.7056 56.5639 19.7595 52.8034C20.7079 49.1474 20.866 44.9691 20.2337 40.2685H0V0H39.0447V41.8354C39.0447 55.5193 35.7778 65.8607 29.244 72.8593C22.7102 79.9625 12.9622 82.4172 0 80.2236ZM52.9553 80.2236L55.3265 63.9282C60.1741 64.346 64.0206 63.5104 66.866 61.4212C69.7113 59.4365 71.6609 56.5639 72.7148 52.8034C73.6632 49.1474 73.8213 44.9691 73.189 40.2685H52.9553V0H92V41.8354C92 55.5193 88.7331 65.8607 82.1993 72.8593C75.6655 79.9625 65.9175 82.4172 52.9553 80.2236Z" fill="white" fill-opacity="0.2"/>
</svg>
