<svg width="28" height="28" viewBox="0 0 28 28" fill="none" xmlns="http://www.w3.org/2000/svg">
<path fill-rule="evenodd" clip-rule="evenodd" d="M3.81266 4.74763C3.81533 4.74763 3.74866 4.81696 3.66466 4.89963C3.342 5.21296 2.674 5.86496 2.66726 7.22896C2.65666 9.13696 3.91133 12.6796 9.95266 18.7196C15.966 24.7303 19.5033 25.9996 21.4153 25.9996H21.4433C22.8073 25.993 23.458 25.3236 23.7727 25.0023C23.8687 24.9036 23.946 24.8316 24.0007 24.7863C25.3287 23.4503 26.0087 22.4556 26.002 21.8183C25.9927 21.1676 25.1833 20.3983 24.0647 19.3343C23.7087 18.9956 23.322 18.6276 22.914 18.2196C21.8567 17.165 21.3327 17.345 20.1807 17.7503C18.5873 18.309 16.4007 19.069 13.0033 15.6703C9.60066 12.2703 10.362 10.0863 10.9193 8.49296C11.322 7.34096 11.506 6.81563 10.4473 5.75696C10.0327 5.34363 9.66066 4.95163 9.318 4.59163C8.26066 3.47963 7.498 2.67563 6.85133 2.6663H6.84066C6.202 2.6663 5.21 3.34896 3.806 4.75296C3.81 4.74896 3.81133 4.74763 3.81266 4.74763ZM21.4167 27.9996C18.094 27.9996 13.762 25.3543 8.53933 20.1343C3.29666 14.893 0.64733 10.5476 0.667218 7.2183C0.67933 5.0183 1.83266 3.89163 2.266 3.46896C2.28866 3.44096 2.366 3.36496 2.39266 3.3383C4.30466 1.42496 5.594 0.65163 6.87666 0.666092C8.366 0.686297 9.426 1.80096 10.7673 3.21296C11.0993 3.5623 11.4593 3.9423 11.8607 4.3423C13.8073 6.28896 13.2527 7.87696 12.8073 9.15163C12.322 10.5423 11.902 11.7423 14.4167 14.257C16.934 16.7716 18.134 16.3516 19.5193 15.8623C20.7953 15.417 22.3793 14.8596 24.3287 16.8063C24.7233 17.201 25.098 17.557 25.4433 17.8863C26.862 19.2343 27.982 20.2996 28.0009 21.793C28.0167 23.0663 27.2433 24.3636 25.334 26.2743L24.4887 25.701L25.2033 26.3996C24.7807 26.833 23.6553 27.9876 21.454 27.9996H21.4167Z" fill="white"/>
</svg>
