<svg width="796" height="1000" viewBox="0 0 796 625" fill="none" xmlns="http://www.w3.org/2000/svg">
<g clip-path="url(#clip0_118_1631)">
<path d="M132.174 503.977C132.088 503.587 131.965 503.206 131.807 502.841H131.933C132.119 502.788 132.301 502.726 132.481 502.653C137.568 508.343 142.199 514.455 146.33 520.926V523.006C142.137 516.259 137.402 509.894 132.174 503.977Z" fill="#1A1A1A"/>
<path d="M106.923 481.642C107.026 481.228 107.074 480.802 107.065 480.375C112.94 484.393 118.515 488.864 123.744 493.75C123.825 494.376 123.942 494.996 124.094 495.608C118.732 490.492 112.991 485.823 106.923 481.642Z" fill="#1A1A1A"/>
<path d="M96.9765 475.381C89.9425 471.342 82.6228 467.864 75.0807 464.977C72.6339 464.04 70.2089 463.182 67.8168 462.386C68.2801 462.201 68.7138 461.945 69.1031 461.625C71.1997 462.335 73.3181 463.091 75.4639 463.898C83.6303 467.009 91.5374 470.81 99.1059 475.261C98.9417 475.261 98.7829 475.261 98.6187 475.261C98.0695 475.267 97.5212 475.307 96.9765 475.381Z" fill="#1A1A1A"/>
<path d="M61.155 460.329C52.2771 457.787 43.2292 455.933 34.0863 454.784C34.2461 454.433 34.362 454.063 34.4312 453.682C42.999 454.777 51.4838 456.486 59.8248 458.795C60.2276 459.343 60.6725 459.856 61.155 460.329Z" fill="#1A1A1A"/>
<path d="M111.444 418.012C117.451 423.3 123.183 428.916 128.616 434.836C127.974 434.613 127.315 434.448 126.645 434.341C121.489 428.811 116.068 423.552 110.404 418.586C110.778 418.456 111.129 418.264 111.444 418.017V418.012Z" fill="#1A1A1A"/>
<path d="M19.7939 367.466C21.8028 368.034 24.7204 368.875 28.4099 370.102C27.718 370.225 27.0357 370.4 26.3681 370.625C24.7259 370.085 23.2096 369.625 21.9287 369.25C21.031 368.989 20.2373 368.761 19.5476 368.574C19.6094 368.407 19.6605 368.236 19.7008 368.062C19.7424 367.865 19.7735 367.666 19.7939 367.466Z" fill="#1A1A1A"/>
<path d="M36.67 373.051C44.8537 376.165 52.8749 379.721 60.7006 383.704C60.0177 383.709 59.3358 383.758 58.6588 383.852H58.5275C50.5793 379.875 43.3153 376.789 37.1407 374.42C37.0681 374.009 36.9487 373.609 36.785 373.227C36.7631 373.181 36.7083 373.119 36.67 373.051Z" fill="#1A1A1A"/>
<path d="M134.884 441.966C137.916 445.568 140.881 449.335 143.779 453.267C143.681 453.797 143.611 454.332 143.571 454.869C140.713 450.937 137.781 447.168 134.774 443.562C134.774 443.437 134.834 443.312 134.851 443.182C134.9 442.779 134.911 442.371 134.884 441.966Z" fill="#1A1A1A"/>
<path d="M70.0994 388.738C74.807 391.386 79.6624 394.318 84.6108 397.568C89.3951 400.704 94.2559 404.142 99.1387 407.886C99.3302 408.545 99.5438 409.187 99.7846 409.806C94.4913 405.687 89.2089 401.931 84.0251 398.528C79.3886 395.483 74.8288 392.721 70.4004 390.204C70.4004 390.085 70.4004 389.966 70.4004 389.846C70.3398 389.467 70.2389 389.095 70.0994 388.738Z" fill="#1A1A1A"/>
<path d="M156.703 473C156.391 473.199 156.09 473.409 155.789 473.625C153.982 470.503 152.125 467.473 150.216 464.534C150.611 464.496 151.002 464.418 151.382 464.301C153.2 467.127 154.973 470.026 156.703 473Z" fill="#1A1A1A"/>
<path d="M191.944 433.71C192.2 433.6 192.44 433.453 192.656 433.272C192.769 433.177 192.876 433.073 192.973 432.96C194.072 445.258 195.775 457.49 198.075 469.608H196.98C194.726 457.736 193.045 445.756 191.944 433.71Z" fill="#1A1A1A"/>
<path d="M189.716 394.886C190.095 394.836 190.464 394.726 190.811 394.562C190.937 400.386 191.189 407.528 191.654 415.466C191.294 416.204 190.974 416.963 190.696 417.739C190.143 409.011 189.859 401.188 189.716 394.886Z" fill="#1A1A1A"/>
<path d="M192.656 433.273C192.44 433.453 192.2 433.6 191.944 433.71C190.302 434.432 187.959 433.886 185.26 432.574C183.517 431.694 181.839 430.68 180.241 429.54C176.494 426.877 172.992 423.86 169.78 420.529C168.407 419.113 167.137 417.594 165.981 415.983C163.95 413.074 162.992 410.421 163.95 408.563C164.908 406.705 167.667 406.091 171.417 406.886C173.55 407.365 175.615 408.129 177.559 409.159C182.254 411.64 186.356 415.177 189.568 419.512L189.974 420.08C189.848 420.612 189.749 421.15 189.678 421.693C189.36 424.193 189.678 426.301 190.329 427.699C190.981 429.097 191.922 429.801 192.919 429.869C193.237 429.893 193.557 429.862 193.866 429.779C193.969 430.924 193.642 432.066 192.951 432.966C192.86 433.076 192.762 433.179 192.656 433.273Z" fill="#2A6049"/>
<path d="M192.94 429.863C191.944 429.795 191.014 429.102 190.351 427.693C189.689 426.284 189.382 424.187 189.7 421.687C189.771 421.144 189.869 420.606 189.995 420.074C190.177 419.269 190.41 418.477 190.691 417.704C190.969 416.929 191.289 416.17 191.649 415.431C191.933 414.863 192.245 414.261 192.585 413.682C194.261 410.89 196.359 408.396 198.798 406.295C200.978 404.425 203.336 402.792 205.837 401.42C207.728 400.368 209.698 399.475 211.727 398.75C213.203 398.198 214.744 397.854 216.309 397.727C217.606 397.659 218.695 397.897 219.44 398.608C220.184 399.318 220.496 400.437 220.321 401.903C220.018 403.735 219.34 405.479 218.334 407.017C217.049 409.065 215.547 410.957 213.856 412.659C212.077 414.505 210.112 416.267 208.18 417.937C206.248 419.608 204.616 421.051 203.122 422.386L199.175 425.96C198.02 427.017 196.953 427.966 195.962 428.704C195.344 429.187 194.647 429.549 193.904 429.772C193.59 429.858 193.264 429.889 192.94 429.863Z" fill="#2A6049"/>
<path d="M189.568 394.886C185.556 395.295 181.702 389.204 180.958 381.318C180.213 373.432 182.857 366.687 186.87 366.278C190.882 365.869 194.73 371.96 195.475 379.846C196.143 386.898 194.101 393.023 190.805 394.54C190.458 394.704 190.089 394.813 189.711 394.863L189.568 394.886Z" fill="#2A6049"/>
<path d="M131.807 502.841C132.142 503.605 132.328 504.429 132.355 505.267C132.356 507.256 131.71 509.186 130.521 510.745C129.523 512.23 128.049 513.297 126.362 513.756C124.674 514.216 122.885 514.036 121.314 513.25C119.54 512.498 118.063 511.147 117.121 509.415C116.645 508.502 116.396 507.481 116.396 506.444C116.396 505.406 116.645 504.385 117.121 503.472C117.705 502.388 118.499 501.441 119.452 500.69C120.405 499.94 121.497 499.401 122.66 499.108C123.539 498.871 124.446 498.764 125.353 498.79C125.601 499.266 125.883 499.722 126.196 500.154C127.817 502.364 129.908 503.279 131.807 502.841Z" fill="#2A6049"/>
<path d="M131.807 502.841C129.908 503.284 127.817 502.369 126.169 500.153C125.856 499.721 125.574 499.266 125.326 498.79C124.835 497.875 124.448 496.905 124.171 495.898C124.171 495.795 124.122 495.688 124.095 495.585C123.942 494.974 123.825 494.353 123.744 493.727C123.596 492.598 123.554 491.456 123.618 490.318C123.734 488.444 124.148 486.603 124.844 484.869C125.426 483.391 126.273 482.042 127.341 480.892C129.284 478.864 131.523 478.244 133.362 479.006C135.201 479.767 136.466 481.659 137.237 483.841C137.629 484.981 137.899 486.162 138.042 487.364C138.354 489.951 138.194 492.576 137.571 495.102C137.281 496.281 136.87 497.424 136.345 498.511C135.415 500.375 134.156 501.92 132.448 502.608C132.269 502.68 132.086 502.743 131.9 502.795L131.807 502.841Z" fill="#2A6049"/>
<path d="M106.923 481.642C106.923 481.699 106.895 481.761 106.879 481.818C106.576 482.699 106.152 483.53 105.62 484.284C105.378 484.664 105.159 485.059 104.963 485.466C104.847 485.881 104.672 486.275 104.443 486.636C104.371 486.737 104.295 486.834 104.213 486.926L103.89 487.233C103.671 487.432 103.441 487.619 103.206 487.801C102.724 488.185 102.219 488.538 101.695 488.858C100.579 489.537 99.3955 490.088 98.1644 490.5C95.803 491.329 93.2887 491.58 90.8184 491.233C88.585 490.864 86.6144 489.886 85.5907 488.08C84.5671 486.273 84.7751 483.937 86.2038 481.659C87.6325 479.381 90.2655 477.239 93.6593 476.097C94.7398 475.737 95.8534 475.495 96.982 475.375C97.5271 475.309 98.0755 475.277 98.6242 475.278C98.7885 475.278 98.9472 475.278 99.1114 475.278C99.7023 475.297 100.291 475.358 100.874 475.46C101.224 475.528 101.569 475.614 101.903 475.705L102.932 476.017C103.712 476.239 104.463 476.561 105.166 476.977C105.74 477.35 106.222 477.858 106.572 478.46C106.897 479.032 107.07 479.683 107.076 480.347C107.084 480.784 107.032 481.22 106.923 481.642Z" fill="#2A6049"/>
<path d="M98.3888 447.523C100.409 447.426 102.286 448.904 103.824 451.182C107.169 456.696 108.544 463.253 107.711 469.711C107.224 472.449 106.107 474.597 104.23 475.392C102.352 476.188 100.069 475.358 97.9509 473.193C95.8325 471.029 93.9604 467.512 93.0791 463.324C92.1978 459.137 92.4988 455.108 93.5608 452.239C94.6227 449.37 96.3853 447.62 98.3888 447.523Z" fill="#2A6049"/>
<path d="M66.2895 462.71C66.4814 462.979 66.6379 463.273 66.7548 463.585C67.4719 465.551 66.5741 467.903 64.7568 470.216C60.1676 475.465 54.0919 479.068 47.4043 480.505C44.5633 480.954 42.1494 480.557 40.8849 478.92C39.6204 477.284 39.7901 474.693 41.3447 471.841C42.8993 468.988 45.7731 465.932 49.6323 463.642C53.4914 461.352 57.5093 460.312 60.6458 460.397L61.2589 460.426C61.4341 460.591 61.6038 460.761 61.8063 460.909C63.043 462.05 64.6349 462.69 66.2895 462.71Z" fill="#2A6049"/>
<path d="M67.784 462.403C67.3055 462.59 66.8005 462.694 66.2896 462.71C64.6255 462.697 63.0227 462.057 61.779 460.909C61.6039 460.761 61.4342 460.591 61.2316 460.426L61.1277 460.329C60.6442 459.849 60.1993 459.328 59.7975 458.773C58.6011 457.11 57.7156 455.229 57.1864 453.227C56.321 450.285 56.3324 447.14 57.2193 444.204C58.0568 441.744 59.6168 440.068 61.5984 439.659C63.58 439.25 65.5999 440.199 67.3078 441.932C69.1565 443.965 70.5031 446.433 71.2324 449.124C71.9616 451.816 72.0519 454.651 71.4953 457.386C71.1541 459.035 70.3047 460.523 69.0758 461.625C68.6865 461.944 68.2528 462.201 67.7895 462.386L67.784 462.403Z" fill="#2A6049"/>
<path d="M20.4835 459.773C13.039 459.205 7.23655 455.381 7.52667 451.21C7.81679 447.04 14.0955 444.114 21.5346 444.67C28.9737 445.227 34.7815 449.057 34.4914 453.227C34.4797 453.38 34.4596 453.532 34.4312 453.682C34.362 454.063 34.2461 454.433 34.0863 454.784C32.5536 458.097 26.9647 460.256 20.4835 459.773Z" fill="#2A6049"/>
<path d="M144.052 452.097C144.766 449.279 146.394 446.802 148.662 445.085C150.643 443.687 152.811 443.381 154.623 444.278C156.435 445.176 157.622 447.011 158.197 449.153C158.757 451.493 158.715 453.945 158.077 456.263C157.438 458.581 156.224 460.685 154.557 462.364C153.653 463.25 152.567 463.912 151.382 464.301C151.002 464.418 150.611 464.496 150.216 464.534C149.825 464.577 149.43 464.577 149.039 464.534C147.047 464.29 145.361 462.829 144.386 460.557C143.666 458.762 143.385 456.81 143.571 454.875C143.611 454.337 143.681 453.802 143.779 453.273C143.855 452.881 143.943 452.489 144.052 452.097Z" fill="#2A6049"/>
<path d="M134.884 441.966C134.911 442.372 134.9 442.779 134.851 443.182C134.851 443.313 134.796 443.438 134.774 443.563C133.98 447.483 129.464 450.034 124.439 449.301C119.256 448.54 115.506 444.574 116.07 440.432C116.633 436.29 121.292 433.551 126.47 434.307L126.64 434.341C127.309 434.447 127.968 434.613 128.611 434.835C132.185 436.063 134.687 438.875 134.884 441.966Z" fill="#2A6049"/>
<path d="M98.9963 407.386C97.9015 403.267 98.0493 399.267 99.0292 396.397C100.009 393.528 101.766 391.778 103.737 391.636C105.707 391.494 107.656 392.875 109.255 395.005C112.734 400.113 114.393 406.318 113.946 412.556C113.667 414.926 112.889 416.92 111.466 418.011C111.151 418.258 110.8 418.449 110.426 418.579C109.167 419.051 107.689 418.846 106.151 418.011C106.226 417.68 106.261 417.34 106.255 417C106.205 414.914 104.514 413.056 101.739 411.829C101.339 411.653 100.912 411.494 100.469 411.341C100.233 410.852 100.009 410.346 99.8065 409.823C99.5656 409.204 99.3521 408.562 99.1605 407.903C99.0894 407.727 99.0401 407.562 98.9963 407.386Z" fill="#2A6049"/>
<path d="M106.233 416.983C106.24 417.324 106.205 417.664 106.129 417.995C105.746 419.699 104.317 421.25 102.242 422.506C96.1344 425.772 89.0799 426.581 82.4322 424.779C79.6953 423.875 77.7684 422.353 77.3743 420.296C76.9801 418.239 78.2501 416.052 80.697 414.222C83.1438 412.393 86.7785 410.972 90.9387 410.495C94.1297 410.089 97.367 410.373 100.447 411.33C100.89 411.483 101.317 411.642 101.717 411.819C104.492 413.069 106.184 414.898 106.233 416.983Z" fill="#2A6049"/>
<path d="M60.7006 383.705C61.0783 383.705 61.456 383.705 61.7954 383.739C61.9705 383.938 62.1512 384.131 62.3428 384.307C64.5323 386.483 66.8259 387.279 68.6488 386.506C69.2837 387.128 69.7741 387.892 70.0829 388.739C70.2169 389.106 70.3105 389.487 70.3621 389.876C70.3621 389.995 70.3621 390.114 70.3621 390.233C70.6139 394.245 66.3388 398.074 60.5747 398.887C54.6409 399.716 49.3969 397.035 48.8549 392.893C48.313 388.751 52.6265 384.779 58.4891 383.904H58.6205C59.3091 383.791 60.0038 383.725 60.7006 383.705Z" fill="#2A6049"/>
<path d="M62.3592 384.307C62.1786 384.131 61.998 383.938 61.8118 383.739C59.5053 380.996 57.903 377.693 57.1535 374.137C56.1682 369.779 56.4036 365.614 57.4327 362.631C58.4618 359.648 60.2244 357.836 62.2224 357.733C64.2204 357.631 66.1253 359.154 67.6963 361.5C71.0994 367.2 72.6177 373.897 72.0208 380.574C71.6267 383.415 70.5976 385.631 68.7364 386.472L68.6543 386.506C66.8424 387.279 64.5324 386.483 62.3592 384.307Z" fill="#2A6049"/>
<path d="M28.6397 370.062C28.9983 370.403 29.3827 370.713 29.7892 370.989C31.8037 372.352 33.9549 372.642 35.7339 371.761C36.1112 372.136 36.4273 372.571 36.67 373.051C36.7083 373.119 36.7521 373.182 36.785 373.25C36.9487 373.632 37.0681 374.032 37.1407 374.443C37.4012 376.218 37.0442 378.031 36.1335 379.557C34.7387 381.898 32.8113 383.848 30.5206 385.235C28.2299 386.622 25.646 387.404 22.996 387.511C20.6532 387.511 18.5895 386.716 17.4126 385.011C16.2357 383.307 16.2138 381 17.2374 378.631C18.5263 375.895 20.5913 373.635 23.1548 372.153C24.17 371.539 25.2453 371.038 26.3625 370.659C27.0302 370.434 27.7125 370.259 28.4043 370.136L28.6397 370.062Z" fill="#2A6049"/>
<path d="M29.7893 370.989C29.3827 370.713 28.9983 370.403 28.6398 370.063C26.8896 368.409 25.5825 366.312 24.8463 363.977C23.8708 361.18 23.8092 358.127 24.6712 355.29C25.4813 352.903 27.0578 351.313 29.0503 350.903C31.0428 350.494 33.0354 351.33 34.7268 352.824C36.539 354.542 37.9022 356.71 38.689 359.123C39.4759 361.536 39.6607 364.117 39.2264 366.625C38.7556 368.898 37.6499 370.795 35.8434 371.739C35.8152 371.753 35.786 371.764 35.7559 371.773C33.955 372.642 31.8037 372.352 29.7893 370.989Z" fill="#2A6049"/>
<path d="M1.02368 358.983C2.24984 357.319 4.23141 356.523 6.3553 356.341C8.64351 356.21 10.9275 356.669 13.0031 357.677C15.0787 358.686 16.8814 360.212 18.2503 362.12C19.3878 363.641 19.9416 365.546 19.8048 367.466C19.7835 367.657 19.7524 367.847 19.7118 368.034C19.6715 368.208 19.6203 368.379 19.5585 368.546C18.9728 370.324 17.4675 371.711 15.2943 372.347C12.935 373.052 9.82036 372.813 6.82064 371.364C3.82092 369.915 1.65323 367.574 0.662445 365.245C-0.328341 362.915 -0.19154 360.642 1.02368 358.983Z" fill="#2A6049"/>
<path d="M331.689 623.295H292.276C292.421 623.144 292.505 622.941 292.512 622.727V607.386H324.644C327.83 607.389 330.978 606.667 333.867 605.272C332.366 610.191 331.598 615.318 331.59 620.477C331.596 621.432 331.634 622.363 331.689 623.295Z" fill="#EFF0F1"/>
<path d="M683.297 620.494C683.297 607.329 678.277 594.795 669.229 583.403C696.1 587.949 716.803 603.699 720.963 623.295H683.193C683.237 622.364 683.297 621.432 683.297 620.494Z" fill="#EFF0F1"/>
<path d="M346.545 582.318V494.284C371.101 499.273 389.411 518.716 389.411 541.892V542.131C392.652 541.979 395.936 541.9 399.265 541.892C402.593 541.885 405.877 541.966 409.118 542.136C381.819 552.046 359.994 565.966 346.545 582.318Z" fill="#EFF0F1"/>
<path d="M200.347 622.728C200.352 622.941 200.436 623.145 200.582 623.296H178.96C179.179 617.875 179.442 612.569 179.836 607.387H200.347V622.728Z" fill="#EFF0F1"/>
<path d="M683.198 623.296H645.932L652.708 567.228C658.8 571.937 664.344 577.366 669.229 583.404C678.277 594.767 683.297 607.33 683.297 620.495C683.297 621.432 683.237 622.364 683.198 623.296Z" fill="#EC744A"/>
<path d="M427.171 554.25C427.174 554.37 427.202 554.487 427.252 554.595C427.302 554.702 427.373 554.798 427.46 554.876C427.548 554.953 427.65 555.011 427.761 555.045C427.871 555.079 427.987 555.089 428.101 555.074L445.448 552.653C446.811 564.097 448.557 575.5 450.796 586.136C453.84 600.563 457.776 613.551 462.927 623.296H331.689C331.634 622.364 331.596 621.432 331.596 620.494C331.604 615.335 332.372 610.208 333.873 605.29C337.661 603.464 340.866 600.551 343.112 596.896C345.357 593.24 346.548 588.994 346.545 584.659V582.296C359.994 565.943 381.819 552.023 409.101 542.114C414.765 540.049 420.659 538.169 426.782 536.472C427.001 547.796 427.171 554.25 427.171 554.25Z" fill="#EC744A"/>
<path d="M314.331 437.642C305.455 437.642 298.259 430.15 298.259 420.909C298.259 411.667 305.455 404.176 314.331 404.176C323.207 404.176 330.402 411.667 330.402 420.909C330.402 430.15 323.207 437.642 314.331 437.642Z" fill="white"/>
<path d="M307.247 413.58C309.229 411.527 310.801 409.088 311.873 406.402C312.945 403.717 313.495 400.839 313.493 397.932C313.494 397.708 313.578 397.492 313.729 397.33C313.883 397.171 314.091 397.082 314.309 397.08H314.347C314.565 397.08 314.774 397.17 314.928 397.33C315.082 397.49 315.168 397.706 315.168 397.932C315.168 400.838 315.72 403.716 316.791 406.401C317.863 409.085 319.433 411.525 321.413 413.579C323.393 415.634 325.744 417.263 328.33 418.375C330.917 419.486 333.69 420.058 336.489 420.057C336.707 420.057 336.916 420.147 337.07 420.307C337.224 420.467 337.31 420.684 337.31 420.91C337.31 421.136 337.223 421.352 337.069 421.512C336.915 421.671 336.707 421.76 336.489 421.762C330.838 421.769 325.42 424.103 321.423 428.25C317.426 432.398 315.177 438.021 315.168 443.887C315.168 444.113 315.082 444.33 314.928 444.49C314.774 444.649 314.565 444.739 314.347 444.739H314.292C314.075 444.738 313.867 444.648 313.712 444.489C313.562 444.328 313.477 444.112 313.477 443.887C313.468 438.021 311.219 432.398 307.222 428.25C303.225 424.103 297.807 421.769 292.156 421.762C291.938 421.76 291.73 421.671 291.575 421.512C291.421 421.352 291.335 421.136 291.335 420.91C291.335 420.684 291.421 420.467 291.575 420.307C291.729 420.147 291.938 420.057 292.156 420.057C294.958 420.063 297.734 419.494 300.324 418.382C302.914 417.271 305.267 415.639 307.247 413.58ZM314.331 437.643C315.38 433.645 317.413 430.001 320.231 427.067C323.049 424.133 326.554 422.011 330.402 420.91C326.554 419.808 323.049 417.687 320.231 414.753C317.413 411.819 315.38 408.174 314.331 404.177C313.282 408.174 311.248 411.819 308.43 414.753C305.612 417.687 302.107 419.808 298.259 420.91C302.107 422.011 305.612 424.133 308.43 427.067C311.248 430.001 313.282 433.645 314.331 437.643Z" fill="black"/>
<path d="M773.02 299.278C764.144 299.278 756.949 291.787 756.949 282.545C756.949 273.304 764.144 265.812 773.02 265.812C781.896 265.812 789.092 273.304 789.092 282.545C789.092 291.787 781.896 299.278 773.02 299.278Z" fill="white"/>
<path d="M750.287 283.148C750.134 282.987 750.048 282.771 750.046 282.545C750.046 282.319 750.133 282.103 750.287 281.943C750.441 281.783 750.65 281.693 750.867 281.693C756.518 281.684 761.935 279.35 765.93 275.203C769.926 271.056 772.174 265.433 772.183 259.568C772.182 259.456 772.203 259.345 772.245 259.242C772.286 259.138 772.347 259.045 772.424 258.966C772.578 258.806 772.786 258.716 773.004 258.716H773.042C773.26 258.717 773.468 258.807 773.622 258.966C773.699 259.045 773.76 259.138 773.801 259.242C773.843 259.345 773.864 259.456 773.863 259.568C773.862 262.475 774.415 265.354 775.489 268.038C776.564 270.723 778.14 273.16 780.126 275.21C782.1 277.266 784.447 278.896 787.03 280.009C789.613 281.121 792.382 281.694 795.179 281.693C795.397 281.693 795.606 281.783 795.76 281.943C795.913 282.103 796 282.319 796 282.545C795.999 282.771 795.912 282.987 795.759 283.148C795.605 283.308 795.397 283.397 795.179 283.398C792.383 283.396 789.613 283.967 787.03 285.079C784.447 286.191 782.101 287.82 780.126 289.875C778.143 291.928 776.572 294.367 775.501 297.052C774.43 299.738 773.881 302.616 773.885 305.523C773.885 305.749 773.798 305.965 773.644 306.125C773.49 306.284 773.282 306.373 773.064 306.375H773.009C772.792 306.375 772.583 306.285 772.429 306.125C772.275 305.965 772.188 305.749 772.188 305.523C772.188 299.655 769.943 294.027 765.945 289.878C761.948 285.729 756.526 283.398 750.873 283.398C750.764 283.398 750.656 283.377 750.556 283.334C750.455 283.291 750.364 283.227 750.287 283.148ZM773.009 299.278C774.059 295.28 776.093 291.635 778.912 288.701C781.731 285.767 785.238 283.646 789.086 282.545C785.238 281.445 781.731 279.324 778.912 276.39C776.093 273.456 774.059 269.81 773.009 265.812C771.96 269.81 769.927 273.454 767.109 276.388C764.291 279.322 760.786 281.444 756.938 282.545C760.786 283.647 764.291 285.768 767.109 288.702C769.927 291.636 771.96 295.281 773.009 299.278Z" fill="black"/>
<path d="M77.3743 548.585C79.996 548.587 82.5583 549.396 84.7371 550.91C86.9159 552.423 88.6135 554.573 89.6152 557.088C90.617 559.603 90.878 562.369 90.3652 565.038C89.8524 567.707 88.5889 570.158 86.7343 572.081C84.8797 574.004 82.5173 575.314 79.9458 575.844C77.3743 576.374 74.7092 576.101 72.2873 575.059C69.8654 574.017 67.7954 572.253 66.3391 569.991C64.8828 567.728 64.1055 565.068 64.1055 562.346C64.1062 560.538 64.45 558.748 65.1172 557.078C65.7844 555.408 66.762 553.891 67.9941 552.613C69.2262 551.335 70.6888 550.322 72.2983 549.631C73.9077 548.94 75.6325 548.584 77.3743 548.585ZM77.3743 571.471C79.1141 571.47 80.8146 570.934 82.2606 569.929C83.7066 568.925 84.8332 567.498 85.498 565.83C86.1628 564.161 86.3359 562.325 85.9954 560.554C85.6549 558.783 84.8161 557.156 83.5851 555.88C82.3542 554.604 80.7862 553.736 79.0796 553.384C77.373 553.033 75.6044 553.215 73.9974 553.907C72.3905 554.599 71.0174 555.77 70.0517 557.273C69.086 558.775 68.5711 560.54 68.5722 562.346C68.5729 563.545 68.8012 564.733 69.2439 565.84C69.6866 566.948 70.3352 567.954 71.1526 568.801C71.9699 569.648 72.9401 570.32 74.0076 570.778C75.0751 571.237 76.2191 571.472 77.3743 571.471Z" fill="#EC744A"/>
<path d="M738.578 508.938C742.279 505.195 745.69 501.156 748.782 496.858H750.309C750.527 496.858 750.736 496.769 750.89 496.609C751.044 496.449 751.13 496.232 751.13 496.006C751.13 495.78 751.044 495.563 750.89 495.404C750.736 495.244 750.527 495.154 750.309 495.154H749.92C750.221 494.677 750.528 494.199 750.813 493.711C753.599 488.966 755.389 483.949 755.739 478.216H756.588C756.769 478.216 756.945 478.154 757.089 478.039C757.233 477.924 757.335 477.762 757.381 477.58C757.24 481.486 756.426 485.335 754.978 488.944C752.274 495.762 747.588 501.66 742.125 507.574C738.387 511.614 734.292 515.665 730.187 519.989L729.037 518.773C732.305 515.341 735.546 512.12 738.578 508.938Z" fill="black"/>
<path d="M701.574 374.278C701.574 374.278 701.574 374.335 701.574 374.363C700.962 369.591 700.658 364.78 700.666 359.966C700.666 359.74 700.752 359.523 700.906 359.363C701.06 359.203 701.269 359.113 701.487 359.113C701.705 359.113 701.913 359.203 702.067 359.363C702.221 359.523 702.308 359.74 702.308 359.966C702.303 364.466 702.573 368.961 703.118 373.426H702.395C702.178 373.426 701.969 373.516 701.815 373.675C701.661 373.835 701.574 374.052 701.574 374.278Z" fill="black"/>
<path d="M717.443 535.194H715.9C715.682 535.194 715.473 535.284 715.319 535.443C715.165 535.603 715.079 535.82 715.079 536.046C715.079 536.272 715.165 536.489 715.319 536.649C715.473 536.808 715.682 536.898 715.9 536.898H716.266C716.201 536.989 716.135 537.08 716.075 537.177C713.059 541.659 710.491 546.449 708.411 551.472H707.798C707.58 551.464 707.368 551.546 707.209 551.7C707.049 551.854 706.955 552.067 706.947 552.293C706.939 552.519 707.018 552.739 707.166 552.905C707.315 553.071 707.52 553.168 707.738 553.177C705.312 559.542 703.704 566.211 702.954 573.012H702.406C702.189 573.012 701.98 573.102 701.826 573.262C701.672 573.421 701.585 573.638 701.585 573.864C701.585 574.09 701.672 574.307 701.826 574.467C701.98 574.627 702.189 574.716 702.406 574.716H702.768C702.483 577.733 702.324 580.887 702.324 584.194C702.324 584.42 702.238 584.637 702.084 584.796C701.93 584.956 701.721 585.046 701.503 585.046C701.285 585.046 701.077 584.956 700.923 584.796C700.769 584.637 700.682 584.42 700.682 584.194C700.682 568.285 704.164 555.739 709.386 545.353C714.471 535.245 721.188 527.171 727.91 520.018C728.293 520.421 728.676 520.83 729.054 521.239C724.876 525.605 720.997 530.268 717.443 535.194Z" fill="black"/>
<path d="M756.588 476.512H755.766V476.319C755.766 469.142 753.5 462.881 749.849 456.824H750.298C750.516 456.824 750.725 456.735 750.879 456.575C751.033 456.415 751.119 456.198 751.119 455.972C751.119 455.746 751.033 455.529 750.879 455.369C750.725 455.21 750.516 455.12 750.298 455.12H748.776C748.305 454.392 747.824 453.665 747.315 452.944C742.388 445.875 735.737 438.938 729.037 431.086L730.132 429.796C733.416 433.637 736.701 437.279 739.766 440.836C744.621 446.438 749.017 451.847 752.219 457.591C755.422 463.336 757.42 469.432 757.414 476.341C757.414 476.631 757.414 476.91 757.414 477.199C757.378 477.001 757.274 476.823 757.123 476.697C756.971 476.571 756.782 476.506 756.588 476.512Z" fill="black"/>
<path d="M707.782 396.665H709.002C709.586 398.131 710.201 399.562 710.847 400.96C712.482 404.502 714.325 407.937 716.365 411.244H716.206C715.988 411.244 715.78 411.334 715.626 411.494C715.472 411.654 715.385 411.87 715.385 412.097C715.385 412.323 715.472 412.539 715.626 412.699C715.78 412.859 715.988 412.949 716.206 412.949H717.421C720.96 418.396 724.844 423.594 729.048 428.506C728.681 428.937 728.315 429.364 727.953 429.795C724.669 425.881 721.385 421.739 718.259 417.227C713.705 410.703 709.935 403.626 707.032 396.153C707.096 396.305 707.2 396.434 707.334 396.525C707.467 396.616 707.622 396.664 707.782 396.665Z" fill="black"/>
<path d="M702.395 375.131H703.342C704.277 381.917 705.958 388.57 708.351 394.96H707.804C707.586 394.96 707.377 395.05 707.223 395.21C707.069 395.37 706.983 395.586 706.983 395.812C706.983 395.922 707.003 396.03 707.043 396.131C704.391 389.165 702.569 381.89 701.618 374.466C701.657 374.651 701.755 374.817 701.896 374.938C702.037 375.058 702.213 375.126 702.395 375.131Z" fill="black"/>
<path d="M707.782 456.818H708.242C707.913 457.386 707.59 457.892 707.289 458.437C704.191 464 702.319 469.773 702.313 476.312C702.313 476.375 702.313 476.437 702.313 476.506H701.487C701.296 476.505 701.112 476.573 700.965 476.699C700.818 476.824 700.718 476.999 700.682 477.193C700.682 476.903 700.682 476.625 700.682 476.312C700.682 468.591 703.195 461.881 707.087 455.528C707.012 455.661 706.972 455.812 706.972 455.966C706.972 456.19 707.057 456.405 707.208 456.564C707.36 456.724 707.566 456.815 707.782 456.818Z" fill="black"/>
<path d="M755.695 373.426H754.978C755.516 368.961 755.783 364.465 755.777 359.966C755.777 359.74 755.864 359.523 756.018 359.363C756.172 359.203 756.381 359.113 756.598 359.113C756.816 359.113 757.025 359.203 757.179 359.363C757.333 359.523 757.42 359.74 757.42 359.966C757.428 364.803 757.122 369.636 756.505 374.431C756.508 374.38 756.508 374.329 756.505 374.278C756.505 374.054 756.42 373.839 756.269 373.679C756.117 373.52 755.911 373.429 755.695 373.426Z" fill="black"/>
<path d="M742.191 411.245H741.742C744.594 406.616 747.052 401.737 749.088 396.665H750.309C750.46 396.665 750.608 396.621 750.737 396.539C750.865 396.457 750.969 396.339 751.037 396.199C750.307 398.093 749.539 399.925 748.732 401.694C747.02 405.394 745.088 408.98 742.946 412.432C742.991 412.326 743.013 412.212 743.012 412.097C743.012 411.871 742.926 411.654 742.772 411.494C742.618 411.334 742.409 411.245 742.191 411.245Z" fill="black"/>
<path d="M750.309 394.96H749.762C752.155 388.57 753.835 381.917 754.77 375.13H755.695C755.887 375.131 756.073 375.061 756.22 374.933C756.367 374.805 756.467 374.628 756.5 374.432C755.55 381.83 753.734 389.081 751.092 396.023C751.116 395.943 751.128 395.861 751.13 395.778C751.122 395.558 751.031 395.35 750.878 395.198C750.725 395.045 750.521 394.96 750.309 394.96Z" fill="black"/>
<path d="M755.695 574.71C755.913 574.71 756.122 574.62 756.276 574.46C756.43 574.301 756.516 574.084 756.516 573.858C756.516 573.632 756.43 573.415 756.276 573.255C756.122 573.095 755.913 573.006 755.695 573.006H755.148C754.395 566.204 752.782 559.535 750.353 553.17C750.56 553.157 750.755 553.062 750.898 552.905C751.04 552.748 751.119 552.54 751.119 552.324C751.118 552.098 751.031 551.882 750.877 551.723C750.723 551.563 750.515 551.473 750.298 551.471H749.69C748.935 549.631 748.125 547.852 747.26 546.136C745.642 542.935 743.82 539.848 741.808 536.898H741.874C742.091 536.898 742.3 536.808 742.454 536.648C742.608 536.488 742.695 536.271 742.695 536.045C742.695 535.819 742.608 535.602 742.454 535.443C742.3 535.283 742.091 535.193 741.874 535.193H740.636C737.087 530.264 733.209 525.6 729.032 521.233C728.654 520.824 728.271 520.415 727.888 520.011C724.642 516.602 721.401 513.346 718.336 510.136C713.48 505.023 709.074 500.057 705.866 494.602C702.855 489.488 700.907 483.92 700.682 477.557C700.723 477.745 700.824 477.913 700.97 478.034C701.115 478.155 701.295 478.221 701.481 478.221H702.395C702.596 481.695 703.355 485.109 704.64 488.324C705.61 490.708 706.798 492.992 708.187 495.142H707.804C707.586 495.142 707.377 495.232 707.223 495.391C707.069 495.551 706.983 495.768 706.983 495.994C706.983 496.22 707.069 496.437 707.223 496.597C707.377 496.757 707.586 496.846 707.804 496.846H709.32C711.715 500.221 714.337 503.416 717.164 506.409C720.854 510.386 724.948 514.443 729.07 518.784L730.22 520C735.032 525.012 739.437 530.428 743.39 536.193C751.442 548.21 757.447 563.295 757.441 584.176C757.441 584.402 757.355 584.619 757.201 584.779C757.047 584.938 756.838 585.028 756.62 585.028C756.403 585.028 756.194 584.938 756.04 584.779C755.886 584.619 755.799 584.402 755.799 584.176C755.799 580.869 755.641 577.721 755.35 574.699L755.695 574.71Z" fill="black"/>
<path d="M719.54 441.977C715.842 446.106 712.423 450.495 709.309 455.113H707.782C707.651 455.112 707.523 455.143 707.406 455.205C707.29 455.266 707.19 455.356 707.114 455.466C707.847 454.278 708.619 453.102 709.44 451.932C714.542 444.67 721.242 437.659 727.953 429.773C728.315 429.341 728.681 428.915 729.048 428.483C732.272 424.648 735.48 420.602 738.496 416.216C739.235 415.142 739.958 414.045 740.686 412.926H742.191C742.311 412.926 742.43 412.898 742.539 412.845C742.647 412.792 742.744 412.715 742.821 412.619C739.006 418.654 734.767 424.387 730.137 429.773L729.043 431.062C725.802 434.892 722.567 438.483 719.54 441.977Z" fill="black"/>
<path d="M755.695 375.13H702.395C702.209 375.131 702.028 375.065 701.883 374.944C701.737 374.823 701.636 374.654 701.596 374.466C701.593 374.432 701.593 374.397 701.596 374.363C701.596 374.363 701.596 374.306 701.596 374.278C701.596 374.052 701.683 373.835 701.837 373.675C701.991 373.516 702.2 373.426 702.417 373.426H755.695C755.913 373.426 756.122 373.516 756.276 373.675C756.43 373.835 756.516 374.052 756.516 374.278C756.519 374.329 756.519 374.38 756.516 374.431C756.482 374.631 756.381 374.81 756.23 374.939C756.08 375.067 755.89 375.135 755.695 375.13Z" fill="black"/>
<path d="M750.309 396.665H707.782C707.622 396.665 707.467 396.616 707.334 396.525C707.2 396.434 707.096 396.305 707.032 396.154C706.992 396.053 706.972 395.945 706.972 395.836C706.972 395.61 707.058 395.393 707.212 395.233C707.366 395.073 707.575 394.983 707.793 394.983H750.309C750.527 394.983 750.736 395.073 750.89 395.233C751.043 395.393 751.13 395.61 751.13 395.836C751.128 395.919 751.115 396.001 751.092 396.08C751.077 396.129 751.058 396.176 751.037 396.222C750.966 396.358 750.861 396.471 750.732 396.549C750.604 396.627 750.458 396.667 750.309 396.665Z" fill="black"/>
<path d="M742.191 412.949H716.206C715.988 412.949 715.78 412.859 715.626 412.699C715.472 412.539 715.385 412.322 715.385 412.096C715.385 411.87 715.472 411.654 715.626 411.494C715.78 411.334 715.988 411.244 716.206 411.244H742.191C742.409 411.244 742.618 411.334 742.772 411.494C742.926 411.654 743.012 411.87 743.012 412.096C743.013 412.212 742.991 412.326 742.946 412.432C742.914 412.508 742.872 412.578 742.821 412.642C742.744 412.738 742.647 412.815 742.539 412.868C742.43 412.921 742.311 412.948 742.191 412.949Z" fill="black"/>
<path d="M701.574 573.864C701.574 573.638 701.661 573.421 701.815 573.261C701.969 573.102 702.178 573.012 702.395 573.012H755.695C755.913 573.012 756.122 573.102 756.276 573.261C756.43 573.421 756.516 573.638 756.516 573.864C756.516 574.09 756.43 574.307 756.276 574.467C756.122 574.626 755.913 574.716 755.695 574.716H702.395C702.178 574.716 701.969 574.626 701.815 574.467C701.661 574.307 701.574 574.09 701.574 573.864Z" fill="black"/>
<path d="M707.782 553.176H707.722C707.504 553.168 707.298 553.07 707.15 552.904C707.001 552.738 706.923 552.518 706.931 552.292C706.939 552.066 707.033 551.853 707.192 551.699C707.352 551.545 707.564 551.463 707.782 551.471H750.309C750.526 551.473 750.734 551.563 750.888 551.723C751.042 551.882 751.129 552.098 751.13 552.324C751.13 552.539 751.051 552.747 750.909 552.905C750.766 553.062 750.571 553.157 750.364 553.17H707.782V553.176Z" fill="black"/>
<path d="M715.9 536.898C715.682 536.898 715.473 536.808 715.319 536.648C715.165 536.488 715.079 536.272 715.079 536.046C715.079 535.82 715.165 535.603 715.319 535.443C715.473 535.283 715.682 535.193 715.9 535.193H741.885C742.102 535.193 742.311 535.283 742.465 535.443C742.619 535.603 742.706 535.82 742.706 536.046C742.706 536.272 742.619 536.488 742.465 536.648C742.311 536.808 742.102 536.898 741.885 536.898H715.9Z" fill="black"/>
<path d="M707.782 455.113H750.309C750.527 455.113 750.736 455.203 750.89 455.363C751.043 455.523 751.13 455.74 751.13 455.966C751.13 456.192 751.043 456.408 750.89 456.568C750.736 456.728 750.527 456.818 750.309 456.818H707.782C707.564 456.818 707.355 456.728 707.201 456.568C707.047 456.408 706.961 456.192 706.961 455.966C706.961 455.812 707.001 455.661 707.076 455.528L707.114 455.466C707.19 455.355 707.29 455.266 707.406 455.205C707.523 455.143 707.651 455.112 707.782 455.113Z" fill="black"/>
<path d="M750.309 495.153C750.527 495.153 750.736 495.243 750.89 495.403C751.043 495.563 751.13 495.78 751.13 496.006C751.13 496.232 751.043 496.448 750.89 496.608C750.736 496.768 750.527 496.858 750.309 496.858H707.782C707.564 496.858 707.355 496.768 707.201 496.608C707.047 496.448 706.961 496.232 706.961 496.006C706.961 495.78 707.047 495.563 707.201 495.403C707.355 495.243 707.564 495.153 707.782 495.153H750.309Z" fill="black"/>
<path d="M756.588 478.216H701.492C701.306 478.216 701.126 478.15 700.981 478.029C700.835 477.908 700.734 477.74 700.693 477.552C700.687 477.489 700.687 477.426 700.693 477.364C700.688 477.309 700.688 477.254 700.693 477.199C700.729 477.005 700.829 476.83 700.976 476.705C701.123 476.579 701.307 476.511 701.498 476.512H756.588C756.774 476.511 756.955 476.577 757.1 476.698C757.246 476.819 757.347 476.988 757.387 477.177C757.395 477.239 757.395 477.302 757.387 477.364C757.395 477.436 757.395 477.508 757.387 477.58C757.341 477.763 757.237 477.925 757.092 478.04C756.947 478.155 756.77 478.217 756.588 478.216Z" fill="black"/>
<path d="M559.087 136.75C584.503 149.37 616.131 173.551 640.967 219.932C651.488 239.603 655.374 259.563 655.38 278.347C655.38 300.415 650.004 320.853 643.742 337.159C632.125 299.909 616.597 264.097 597.438 230.37C597.334 230.186 597.168 230.05 596.973 229.988C596.777 229.926 596.566 229.943 596.381 230.034L552.562 133.699C554.686 134.659 556.86 135.642 559.087 136.75Z" fill="white"/>
<path d="M643.742 337.159C650.004 320.852 655.38 300.415 655.38 278.346C655.38 259.562 651.493 239.602 640.967 219.932C616.131 173.551 584.503 149.369 559.087 136.75C556.86 135.613 554.708 134.63 552.562 133.699L552.387 133.307C552.528 133.238 552.647 133.13 552.73 132.994C552.814 132.858 552.858 132.701 552.858 132.54C552.858 132.378 552.814 132.221 552.73 132.085C552.647 131.949 552.528 131.841 552.387 131.772C554.785 132.814 557.254 133.96 559.794 135.21C585.466 147.954 617.39 172.397 642.396 219.102C653.075 239.045 657.016 259.318 657.016 278.346C657.016 301.579 651.148 322.954 644.519 339.71C644.268 338.858 644.005 338.005 643.742 337.159Z" fill="black"/>
<path d="M177.247 239.659C170.755 235.267 165.697 230.471 162.735 226.244C160.748 223.403 159.735 220.863 159.746 218.966C159.733 218.272 159.887 217.586 160.195 216.971C160.398 216.562 160.679 216.201 161.022 215.909C161.425 215.584 161.876 215.329 162.357 215.153C163.682 214.707 165.071 214.502 166.463 214.545C169.196 214.613 171.915 214.965 174.581 215.596C177.597 216.255 180.843 217.181 184.095 218.221C190.603 220.312 197.139 222.88 201.978 224.795C203.588 225.448 205.233 226.005 206.904 226.466C208.06 226.804 209.251 226.995 210.452 227.034C211.145 227.06 211.835 226.924 212.471 226.636C213.042 226.364 213.494 225.879 213.736 225.278C213.891 224.881 213.967 224.456 213.96 224.028C213.946 223.372 213.835 222.723 213.632 222.102C213.386 221.341 213.086 220.601 212.734 219.886C211.78 217.995 210.699 216.176 209.499 214.443C208.417 212.934 207.813 211.113 207.769 209.233C207.744 207.618 208.305 206.052 209.34 204.846C209.81 204.303 210.383 203.869 211.024 203.57C211.666 203.272 212.36 203.116 213.063 203.113C214.446 203.136 215.782 203.641 216.856 204.545C218.474 205.907 219.773 207.632 220.655 209.591C222.429 213.216 225.582 217.545 229.282 222C232.982 226.454 237.285 231.091 241.363 235.289C245.195 239.204 248.791 242.733 251.566 245.38C247.275 245.579 243.848 246.642 241.166 248.261C238.454 249.894 236.209 252.248 234.663 255.079C232.987 258.22 231.963 261.69 231.658 265.267C224.377 260.386 214.207 255.074 200.374 250.767C192.198 248.216 184.412 244.476 177.247 239.659Z" fill="white"/>
<path d="M252.984 245.346C252.486 245.346 252.004 245.346 251.528 245.386C248.753 242.738 245.134 239.21 241.325 235.295C237.246 231.108 232.955 226.477 229.244 222.005C225.532 217.534 222.39 213.221 220.617 209.596C219.746 207.64 218.46 205.913 216.856 204.545C215.796 203.655 214.481 203.153 213.117 203.119C212.415 203.122 211.72 203.277 211.079 203.576C210.438 203.874 209.864 204.309 209.395 204.852C208.359 206.058 207.798 207.623 207.824 209.238C207.867 211.119 208.472 212.939 209.554 214.449C210.754 216.182 211.835 218.001 212.789 219.892C213.14 220.606 213.44 221.347 213.687 222.108C213.889 222.729 214 223.378 214.015 224.034C214.022 224.462 213.945 224.887 213.791 225.284C213.548 225.885 213.097 226.37 212.526 226.642C211.89 226.93 211.2 227.065 210.506 227.039C209.306 227 208.115 226.81 206.959 226.471C205.288 226.011 203.643 225.453 202.033 224.801C197.194 222.886 190.658 220.318 184.149 218.227C180.898 217.187 177.652 216.261 174.635 215.602C171.97 214.971 169.251 214.619 166.518 214.551C165.126 214.507 163.737 214.713 162.412 215.159C161.912 215.327 161.442 215.581 161.022 215.909C160.672 216.191 160.381 216.545 160.168 216.949C159.859 217.564 159.705 218.25 159.719 218.943C159.719 220.841 160.721 223.403 162.708 226.221C165.669 230.449 170.727 235.244 177.219 239.636C184.376 244.451 192.153 248.191 200.319 250.744C214.152 255.051 224.322 260.363 231.603 265.244C231.532 265.983 231.493 266.642 231.471 267.199C224.284 262.261 214.026 256.801 199.848 252.375C188.041 248.687 177.663 242.716 170.202 236.466C166.902 233.805 163.945 230.716 161.405 227.272C159.319 224.29 158.12 221.488 158.12 218.994C158.105 218.017 158.327 217.052 158.766 216.187C159.089 215.581 159.524 215.048 160.047 214.619C160.886 213.964 161.851 213.507 162.877 213.278C164.068 213.002 165.286 212.872 166.507 212.892C169.354 212.958 172.187 213.324 174.964 213.983C184.209 216.005 195.332 220.38 202.607 223.255C204.16 223.886 205.746 224.423 207.359 224.863C208.384 225.163 209.441 225.333 210.506 225.369C210.84 225.375 211.173 225.336 211.497 225.255C211.761 225.205 212 225.063 212.176 224.852C212.319 224.619 212.388 224.344 212.373 224.068C212.357 223.588 212.272 223.113 212.121 222.659C211.574 220.954 210.227 218.449 208.207 215.46C206.929 213.666 206.222 211.503 206.182 209.272C206.153 207.229 206.871 205.25 208.191 203.733C208.814 203.018 209.574 202.447 210.422 202.055C211.271 201.664 212.189 201.461 213.117 201.46C214.836 201.498 216.495 202.119 217.841 203.227C219.661 204.743 221.123 206.671 222.116 208.863C223.759 212.272 226.857 216.511 230.524 220.932C236.031 227.568 242.874 234.602 248.337 239.966C250.718 242.307 252.831 244.324 254.462 245.863L253.291 245.432C253.196 245.381 253.091 245.352 252.984 245.346Z" fill="black"/>
<path d="M581.81 533.523C603.755 530.426 628.497 526.938 656.414 523.006L644.279 623.296H573.517C574.026 619.034 576.128 600.983 578.235 578.602C579.56 564.5 580.874 548.682 581.81 533.523Z" fill="#2A6049"/>
<path d="M645.932 623.295L645.817 624.255C645.791 624.461 645.695 624.65 645.544 624.787C645.394 624.925 645.201 625 645.001 625H572.592C572.791 625 572.983 624.924 573.133 624.787C573.282 624.65 573.378 624.461 573.402 624.255C573.402 624.255 573.446 623.92 573.517 623.295H644.278L656.414 523.005L658.1 522.772L652.725 567.227L645.932 623.295Z" fill="black"/>
<path d="M577.042 573.562C574.787 598.216 572.4 618.67 571.875 623.136C571.875 623.199 571.875 623.238 571.875 623.295H464.826C459.582 613.716 455.52 600.517 452.417 585.795C450.189 575.221 448.448 563.858 447.09 552.449C468.329 549.483 509.422 543.727 580.168 533.772C579.336 547.062 578.213 560.869 577.042 573.562Z" fill="#2A6049"/>
<path d="M445.448 552.653L447.09 552.426C448.448 563.835 450.189 575.198 452.417 585.772C455.52 600.545 459.582 613.716 464.826 623.272H571.864C571.864 623.216 571.864 623.176 571.864 623.113C572.411 618.647 574.776 598.193 577.031 573.539C578.192 560.846 579.314 547.039 580.129 533.727L581.771 533.488C580.846 548.659 579.522 564.477 578.197 578.579C576.09 600.96 573.988 619.011 573.478 623.272C573.407 623.897 573.369 624.233 573.363 624.233C573.339 624.438 573.244 624.627 573.094 624.764C572.945 624.901 572.753 624.977 572.553 624.977H464.322C464.178 624.976 464.037 624.936 463.912 624.861C463.788 624.787 463.684 624.68 463.611 624.551C463.381 624.136 463.156 623.704 462.927 623.272C457.776 613.528 453.84 600.545 450.796 586.113C448.557 575.5 446.811 564.096 445.448 552.653Z" fill="black"/>
<path d="M441.107 114.086H441.053L440.845 114.171C440.664 114.245 440.385 114.358 440.029 114.489C439.312 114.756 438.272 115.108 436.991 115.466C433.741 116.381 430.39 116.858 427.023 116.887C423.13 116.95 419.273 116.105 415.736 114.415C412.035 112.568 408.554 109.529 405.768 104.625C398.81 92.3639 395.263 76.8923 395.263 62.1537C395.26 57.81 395.586 53.4728 396.237 49.1821C399.771 48.9701 403.28 48.4416 406.726 47.6026C410.672 46.7105 414.559 45.6537 417.914 44.9548C419.828 44.5108 421.778 44.254 423.739 44.1878C424.756 44.1214 425.773 44.3309 426.689 44.7957C427.238 45.1404 427.707 45.6059 428.063 46.1594C428.452 46.7757 428.747 47.4502 428.939 48.1594C429.371 49.957 429.564 51.8074 429.514 53.6594C429.514 56.5003 429.251 59.5855 429.251 62.398C429.236 63.6583 429.316 64.9179 429.492 66.1651C429.631 67.2739 429.975 68.3444 430.504 69.3185C430.851 69.9323 431.32 70.4629 431.878 70.8753C432.713 71.4544 433.688 71.7756 434.692 71.8014C434.856 71.8014 435.02 71.8014 435.179 71.8014C435.901 71.8141 436.619 71.6988 437.303 71.4605C437.896 71.2482 438.436 70.9029 438.885 70.4491C439.704 69.5454 440.249 68.411 440.451 67.1878C440.614 66.3361 440.726 65.4745 440.784 64.6082C440.872 63.4264 440.921 62.2105 441.02 61.0571C441.084 59.654 441.384 58.2734 441.907 56.9776C442.18 56.3677 442.582 55.8298 443.084 55.4037C443.781 54.8488 444.609 54.4976 445.481 54.3867C445.638 54.3585 445.798 54.3433 445.957 54.3412C446.386 54.3368 446.807 54.4633 447.167 54.7048C447.584 55.0051 447.936 55.3921 448.202 55.8412C448.994 57.299 449.561 58.8769 449.882 60.5173C450.835 64.4946 451.524 69.7787 452.833 74.8128C453.719 78.1707 454.902 81.4207 456.708 84.1082C457.72 85.6517 458.999 86.9868 460.48 88.0457C462.33 89.3194 464.455 90.1 466.665 90.3185C468.167 90.49 469.676 90.5791 471.187 90.5855C473.502 90.633 475.811 90.315 478.035 89.6423C480.959 96.3813 484.27 102.933 487.948 109.262C481.275 109.523 472.424 110.909 463.742 115.472C458.144 118.41 453.146 122.445 449.023 127.353L442.164 114.392C442.055 114.215 441.887 114.086 441.692 114.029C441.497 113.972 441.289 113.992 441.107 114.086Z" fill="white"/>
<path d="M396.226 49.21C395.575 53.5007 395.249 57.8379 395.252 62.1816C395.252 76.9202 398.799 92.3918 405.757 104.653C408.543 109.557 412.024 112.608 415.725 114.443C419.262 116.133 423.119 116.978 427.012 116.915C430.38 116.886 433.73 116.408 436.98 115.494C438.261 115.136 439.301 114.784 440.018 114.517C440.374 114.386 440.653 114.272 440.834 114.199L441.042 114.113H441.096C441.284 114.029 441.495 114.02 441.688 114.088C441.881 114.157 442.043 114.297 442.142 114.483L449.001 127.443C448.618 127.897 448.24 128.363 447.868 128.841L441.053 115.966C436.55 117.685 431.798 118.592 427.001 118.647C422.863 118.699 418.766 117.786 415.013 115.977C410.517 113.693 406.794 110.045 404.339 105.517C397.223 92.9316 393.615 77.1986 393.61 62.1816C393.607 57.8446 393.923 53.5138 394.557 49.227H395.104C395.477 49.2384 395.854 49.227 396.226 49.21Z" fill="black"/>
<path d="M487.937 109.324C484.259 102.995 480.948 96.4436 478.024 89.7046C478.547 89.5328 479.061 89.3298 479.562 89.0967C482.57 96.0457 486.006 102.787 489.847 109.278C489.234 109.284 488.599 109.301 487.937 109.324Z" fill="black"/>
<path d="M487.899 235.545C487.984 235.397 488.023 235.226 488.012 235.054C488.001 234.882 487.939 234.718 487.836 234.584C487.732 234.449 487.591 234.35 487.433 234.301C487.274 234.251 487.104 234.253 486.946 234.306L460.222 145.784C461.651 144.846 463.145 143.88 464.689 142.897C475.955 135.699 489.804 127.505 499.958 123.545C502.103 122.676 504.313 121.989 506.565 121.488C517.184 122.13 527.317 124.545 535.276 127.034C540.849 128.747 546.309 130.834 551.621 133.284L551.687 133.318C551.796 133.373 551.916 133.401 552.037 133.401C552.158 133.401 552.278 133.373 552.387 133.318L552.562 133.71L596.381 230.034L596.316 230.062C596.222 230.119 596.14 230.194 596.074 230.283C596.009 230.373 595.961 230.475 595.933 230.583C595.906 230.692 595.899 230.806 595.914 230.917C595.929 231.028 595.965 231.136 596.02 231.233C630.605 292.278 665.14 380.284 665.14 488.324C665.14 498.763 664.806 509.388 664.138 520.198C504.14 542.75 443.27 551.244 430.537 553.017L428.785 553.255C428.785 552.948 428.785 552.568 428.785 552.119C428.753 550.738 428.703 548.71 428.649 546.051C428.534 540.761 428.38 533.073 428.227 523.46C427.921 504.233 427.614 477.318 427.614 446.573C427.614 407.017 428.123 361.119 429.804 317.091C434.385 311.926 438.819 306.625 443.051 301.329C459.484 280.533 474.471 258.549 487.899 235.545ZM441.288 440.267C441.182 440.289 441.082 440.333 440.993 440.395C440.903 440.458 440.827 440.538 440.767 440.632C440.708 440.725 440.666 440.83 440.646 440.94C440.625 441.05 440.626 441.163 440.648 441.272C440.694 441.494 440.822 441.687 441.004 441.812C441.186 441.936 441.408 441.981 441.622 441.937L441.983 441.858L443.023 441.642C443.932 441.454 445.251 441.187 446.893 440.869C449.143 440.431 452.017 439.886 455.247 439.318L486.541 435.272C488.348 435.17 490.077 435.113 491.692 435.113C492.486 435.113 493.252 435.113 493.986 435.153C494.094 435.157 494.201 435.138 494.302 435.099C494.403 435.06 494.496 435 494.574 434.923C494.653 434.847 494.717 434.755 494.761 434.653C494.806 434.551 494.831 434.441 494.834 434.329C494.838 434.217 494.82 434.106 494.782 434.001C494.744 433.896 494.687 433.8 494.613 433.718C494.539 433.636 494.451 433.571 494.353 433.524C494.254 433.478 494.148 433.452 494.04 433.448C493.285 433.448 492.502 433.403 491.692 433.403C482.485 433.403 469.911 435.108 459.609 436.812C449.307 438.517 441.299 440.221 441.288 440.221V440.267Z" fill="white"/>
<path d="M552.781 132.904C552.699 133.082 552.56 133.224 552.387 133.307C552.278 133.362 552.158 133.39 552.037 133.39C551.916 133.39 551.796 133.362 551.687 133.307L551.621 133.273C546.309 130.824 540.849 128.736 535.276 127.023C527.317 124.534 517.184 122.12 506.565 121.478C506.904 121.409 507.244 121.341 507.561 121.296C507.71 121.272 507.85 121.207 507.966 121.107C508.082 121.007 508.169 120.875 508.218 120.728C508.267 120.586 508.28 120.434 508.254 120.286C508.228 120.139 508.165 120.001 508.07 119.887C523.375 121.314 538.352 125.329 552.409 131.773C552.602 131.873 552.749 132.048 552.818 132.259C552.888 132.471 552.875 132.702 552.781 132.904Z" fill="black"/>
<path d="M656.414 523.006C628.497 526.938 603.755 530.426 581.81 533.523L580.168 533.762C509.422 543.716 468.329 549.472 447.09 552.438L445.448 552.665L428.101 555.086C427.987 555.101 427.871 555.091 427.761 555.057C427.65 555.023 427.548 554.965 427.46 554.887C427.373 554.81 427.302 554.714 427.252 554.606C427.202 554.499 427.174 554.381 427.171 554.262C427.171 554.262 427.001 547.807 426.782 536.506C426.421 517.586 425.945 485.086 425.945 446.569C425.945 407.586 426.437 362.478 428.047 319.006C428.623 318.37 429.196 317.73 429.765 317.086C428.096 361.114 427.576 407.012 427.576 446.569C427.576 477.313 427.882 504.228 428.189 523.455C428.342 533.069 428.495 540.756 428.61 546.046C428.665 548.688 428.714 550.733 428.747 552.114C428.747 552.58 428.747 552.961 428.747 553.25L430.499 553.012C443.231 551.239 504.102 542.745 664.1 520.194C664.815 509.383 665.162 498.76 665.14 488.324C665.14 380.284 630.605 292.302 596.02 231.233C595.965 231.136 595.929 231.029 595.914 230.918C595.899 230.806 595.906 230.693 595.933 230.584C595.961 230.475 596.009 230.373 596.074 230.284C596.14 230.194 596.222 230.119 596.316 230.063L596.381 230.034C596.566 229.943 596.777 229.926 596.973 229.988C597.168 230.05 597.335 230.186 597.438 230.37C616.598 264.106 632.126 299.928 643.742 337.188C644.005 338.034 644.29 338.892 644.525 339.733C659.243 387.795 666.75 437.921 666.782 488.353C666.782 499.05 666.433 509.944 665.736 521.034C665.724 521.231 665.646 521.416 665.516 521.559C665.386 521.702 665.213 521.794 665.025 521.819L658.057 522.773L656.414 523.006Z" fill="black"/>
<path d="M486.481 234.659C486.481 234.659 486.361 234.881 486.114 235.301C485.868 235.722 485.512 236.347 485.019 237.154C484.067 238.773 482.666 241.131 480.859 244.08C477.246 249.977 472.024 258.25 465.576 267.733C452.679 286.705 434.884 310.523 415.336 329.898C402.308 342.818 388.514 353.761 374.884 359.972C367.105 363.529 359.403 365.54 351.948 365.54C350.736 365.54 349.532 365.487 348.335 365.381C333.637 364.057 319.279 357.727 305.967 348.858C292.654 339.989 280.381 328.591 269.838 317.182C264.912 311.852 260.401 306.529 256.323 301.46C255.906 299.309 255.699 297.12 255.705 294.926C255.705 287.136 258.146 279.546 260.681 273.807C262.206 270.296 264.025 266.931 266.116 263.75V263.71C266.179 263.62 266.225 263.517 266.25 263.408C266.275 263.299 266.279 263.186 266.262 263.076C266.245 262.965 266.207 262.859 266.151 262.764C266.094 262.669 266.02 262.586 265.933 262.52C265.845 262.454 265.747 262.407 265.642 262.381C265.537 262.355 265.428 262.351 265.321 262.369C265.215 262.386 265.113 262.426 265.021 262.484C264.929 262.543 264.849 262.62 264.786 262.71C262.729 265.821 260.931 269.107 259.411 272.534C256.734 278.472 254.041 286.5 254.035 294.926C254.037 296.255 254.11 297.583 254.254 298.904C246.65 289.324 239.591 279.292 233.114 268.858L233.07 268.784C233.07 268.625 233.07 268.392 233.07 268.091C233.078 266.095 233.297 264.106 233.721 262.159C234.304 259.293 235.454 256.585 237.099 254.205C238.388 252.391 240.024 250.872 241.905 249.744C244.598 248.136 248.134 247.08 252.82 247.057C262.903 250.648 275.104 256.716 287.601 262.938C300.098 269.159 313.05 275.568 324.403 279.648C331.973 282.386 338.881 284.136 344.656 284.136C347.275 284.202 349.881 283.725 352.32 282.733C354.567 281.78 356.493 280.162 357.86 278.08C360.974 273.335 368.145 263.046 377.281 250.08C386.417 237.114 397.535 221.477 408.543 206.011C421.456 187.886 434.243 170.006 443.576 156.96C443.956 156.765 444.322 156.541 444.671 156.29L445.065 156.011L446.209 155.21C447.2 154.517 448.64 153.506 450.435 152.296C453.035 150.517 456.385 148.261 460.184 145.784L486.908 234.307C486.73 234.369 486.579 234.493 486.481 234.659Z" fill="white"/>
<path d="M443.543 156.983H443.587C434.248 170.052 421.461 187.91 408.554 206.035C397.535 221.5 386.428 237.142 377.292 250.103C368.156 263.063 360.985 273.358 357.87 278.103C356.504 280.185 354.578 281.803 352.331 282.756C349.892 283.748 347.286 284.225 344.667 284.16C338.892 284.16 331.984 282.41 324.414 279.671C313.061 275.563 300.219 269.194 287.667 262.955C275.115 256.716 262.969 250.665 252.886 247.074C248.2 247.074 244.675 248.154 241.97 249.762C240.09 250.89 238.454 252.408 237.164 254.222C235.52 256.602 234.37 259.311 233.787 262.177C233.362 264.123 233.144 266.112 233.136 268.108C233.136 268.41 233.136 268.642 233.136 268.802L233.179 268.875C239.657 279.309 246.716 289.341 254.32 298.921C254.425 299.966 254.582 301.006 254.79 302.035C254.835 302.256 254.962 302.45 255.144 302.574C255.326 302.698 255.549 302.742 255.762 302.696C255.976 302.65 256.163 302.518 256.282 302.329C256.402 302.14 256.444 301.909 256.4 301.688C256.4 301.62 256.4 301.552 256.361 301.489C260.44 306.557 264.967 311.881 269.877 317.211C280.392 328.62 292.659 340.017 306.005 348.887C319.35 357.756 333.676 364.086 348.373 365.41C349.57 365.516 350.774 365.569 351.986 365.569C359.441 365.569 367.143 363.557 374.922 360C388.53 353.785 402.346 342.847 415.374 329.927C434.922 310.552 452.718 286.745 465.614 267.762C472.063 258.279 477.285 250.006 480.897 244.108C482.704 241.16 484.105 238.802 485.058 237.182C485.534 236.375 485.895 235.75 486.153 235.33C486.41 234.91 486.519 234.688 486.519 234.688C486.623 234.506 486.789 234.372 486.985 234.313C487.142 234.26 487.312 234.258 487.471 234.307C487.63 234.357 487.77 234.455 487.874 234.59C487.977 234.725 488.039 234.889 488.05 235.061C488.061 235.232 488.022 235.404 487.937 235.552C474.497 258.551 459.497 280.529 443.051 301.319C438.819 306.614 434.385 311.915 429.804 317.08C429.234 317.72 428.661 318.36 428.085 319C418.949 329.142 409.233 338.694 399.281 346.586C391.481 352.767 383.532 357.949 375.601 361.563C367.669 365.177 359.726 367.245 352.002 367.245C350.743 367.245 349.495 367.194 348.253 367.08C332.701 365.677 317.659 358.841 303.832 349.421C283.096 335.279 265.076 315.33 252.218 298.853C244.817 289.491 237.945 279.692 231.636 269.506C231.566 269.389 231.525 269.257 231.515 269.12C231.515 269.12 231.515 268.728 231.515 268.08C231.515 267.836 231.515 267.54 231.515 267.222C231.515 266.654 231.575 266.006 231.647 265.267C231.952 261.691 232.976 258.221 234.652 255.08C236.198 252.248 238.443 249.895 241.155 248.262C243.848 246.642 247.275 245.58 251.555 245.381C252.032 245.381 252.513 245.341 253.011 245.341C253.103 245.339 253.194 245.355 253.28 245.387L254.451 245.819C267.928 250.773 284.711 259.745 300.936 267.574C309.278 271.603 317.467 275.324 324.95 278.035C332.433 280.745 339.182 282.432 344.656 282.427C347.059 282.491 349.449 282.06 351.69 281.16C353.646 280.333 355.323 278.923 356.507 277.108C359.863 271.995 367.789 260.631 377.812 246.427C397.102 219.086 424.127 181.262 441.014 157.677C441.895 157.633 442.757 157.396 443.543 156.983Z" fill="black"/>
<path d="M505.842 119.887C503.643 120.4 501.484 121.084 499.383 121.932C496.416 123.069 493.17 124.586 489.776 126.301C482.994 129.739 475.626 134.057 468.816 138.284C455.197 146.745 443.79 154.858 443.784 154.864L443.74 154.898L443.543 155.023C443.319 155.167 443.087 155.298 442.848 155.415C442.266 155.741 441.624 155.935 440.965 155.983C440.649 155.999 440.338 155.9 440.084 155.705C439.739 155.388 439.508 154.959 439.427 154.489C439.295 153.891 439.232 153.279 439.241 152.665C439.31 150.584 439.613 148.519 440.144 146.512C445.837 130.858 455.033 122.029 464.498 117.04C473.962 112.051 483.738 110.961 490.428 110.961C493.155 110.933 495.879 111.123 498.578 111.529L505.842 119.887Z" fill="#2A6049"/>
<path d="M508.218 120.75C508.169 120.898 508.082 121.029 507.966 121.129C507.85 121.229 507.71 121.294 507.561 121.318C507.244 121.363 506.904 121.432 506.565 121.5C504.313 122 502.103 122.688 499.958 123.557C489.804 127.534 475.955 135.71 464.689 142.909C463.146 143.892 461.651 144.858 460.222 145.795C456.424 148.272 453.073 150.528 450.473 152.307C448.678 153.528 447.238 154.528 446.247 155.221L445.103 156.022L444.709 156.301C444.36 156.552 443.995 156.776 443.614 156.971H443.571C442.786 157.392 441.924 157.636 441.042 157.687H440.971C440.531 157.691 440.095 157.602 439.69 157.426C438.994 157.098 438.441 156.513 438.14 155.784C437.743 154.797 437.556 153.733 437.593 152.665C437.663 150.434 437.985 148.22 438.551 146.068L438.584 145.971C440.763 139.763 443.907 133.967 447.89 128.812C448.255 128.335 448.632 127.869 449.023 127.415C453.142 122.508 458.137 118.474 463.731 115.534C472.413 110.988 481.248 109.585 487.937 109.324C488.599 109.324 489.234 109.284 489.847 109.278H490.395C493.312 109.248 496.227 109.47 499.109 109.943C499.287 109.977 499.448 110.071 499.569 110.21L508.032 119.869C508.14 119.983 508.214 120.126 508.247 120.282C508.28 120.437 508.27 120.6 508.218 120.75ZM498.556 111.568C495.858 111.162 493.133 110.972 490.406 111C483.717 111 473.951 112.096 464.476 117.079C455 122.062 445.815 130.897 440.122 146.551C439.591 148.558 439.288 150.624 439.219 152.704C439.21 153.318 439.273 153.93 439.405 154.528C439.486 154.999 439.717 155.427 440.062 155.744C440.316 155.939 440.627 156.038 440.943 156.022C441.603 155.974 442.244 155.78 442.826 155.454C443.065 155.337 443.297 155.206 443.521 155.062L443.718 154.937L443.762 154.903C443.762 154.903 455.175 146.784 468.795 138.324C475.604 134.096 482.972 129.801 489.754 126.341C493.148 124.636 496.394 123.13 499.361 121.971C501.462 121.123 503.621 120.44 505.82 119.926L498.556 111.568Z" fill="black"/>
<path d="M478.106 87.8755C475.873 88.6481 473.528 89.0096 471.176 88.9437C469.725 88.938 468.277 88.8526 466.835 88.688C464.605 88.4802 462.481 87.6103 460.715 86.1823C459.056 84.7623 457.711 82.9894 456.768 80.9835C454.694 76.8187 453.643 71.4948 452.75 66.6198C452.284 63.6696 451.646 60.7514 450.84 57.8812C450.483 56.6161 449.913 55.427 449.154 54.3698C448.785 53.8815 448.327 53.4724 447.807 53.1653C447.237 52.8411 446.597 52.673 445.946 52.6766C445.701 52.6779 445.455 52.6988 445.213 52.7391C444.203 52.8858 443.236 53.2621 442.383 53.8414C441.654 54.3626 441.051 55.0508 440.62 55.8528C439.777 57.4096 439.525 59.2619 439.35 61.0687C439.252 62.2846 439.208 63.5005 439.115 64.6255C439.079 65.9168 438.814 67.1901 438.332 68.3812C438.11 68.8714 437.764 69.2897 437.33 69.5914C436.671 70.0014 435.909 70.1992 435.141 70.1596H434.736C434.04 70.1475 433.363 69.9307 432.782 69.5346C432.275 69.1526 431.879 68.6338 431.637 68.0346C431.052 66.7164 430.849 64.7278 430.855 62.455C430.855 59.7448 431.112 56.6539 431.117 53.7164C431.139 52.1809 431.029 50.6465 430.789 49.1312C430.585 47.7519 430.106 46.432 429.382 45.2562C428.891 44.4999 428.246 43.864 427.494 43.3926C426.326 42.7601 425.015 42.4657 423.7 42.5403C421.631 42.6028 419.573 42.8711 417.553 43.3414C415.27 43.8187 412.78 44.4437 410.218 45.046C405.1 46.3016 399.67 47.5346 395.077 47.5346C392.937 47.5927 390.808 47.2063 388.815 46.3982C387.052 45.6532 385.597 44.2899 384.704 42.546C383.979 41.0775 383.531 39.4787 383.385 37.8357C383.336 37.3962 383.313 36.9542 383.313 36.5119C383.313 33.3982 384.501 30.2164 386.642 27.0857C389.14 23.6215 392.139 20.5782 395.531 18.063C402.883 12.3812 412.621 7.60846 421.949 4.70505C428.194 2.80164 434.232 1.70505 439.23 1.70505C441.179 1.68065 443.124 1.88845 445.027 2.32437C446.533 2.65286 447.962 3.28822 449.231 4.19368C451.743 6.08005 454.524 9.22778 457.343 13.2221C460.463 17.7251 463.284 22.4423 465.789 27.3414C471.41 38.1853 476.035 49.5534 479.606 61.296C481.795 68.6255 483.18 75.3641 483.437 80.5119V80.5687V80.6425C483.437 80.705 483.437 80.8016 483.437 80.9266C483.428 82.0535 483.15 83.1604 482.627 84.1482C481.921 85.4835 480.64 86.9323 478.106 87.8755Z" fill="black"/>
<path d="M478.024 89.7046C475.8 90.3772 473.491 90.6953 471.176 90.6478C469.665 90.6414 468.156 90.5523 466.654 90.3807C464.444 90.1623 462.319 89.3817 460.469 88.108C458.988 87.049 457.709 85.7139 456.697 84.1705C454.891 81.483 453.708 78.233 452.822 74.875C451.491 69.841 450.824 64.5398 449.871 60.5796C449.55 58.9392 448.983 57.3612 448.191 55.9035C447.925 55.4543 447.573 55.0674 447.156 54.7671C446.796 54.5255 446.375 54.3991 445.946 54.4035C445.787 54.4055 445.627 54.4207 445.47 54.4489C444.598 54.5599 443.77 54.911 443.072 55.466C442.571 55.892 442.169 56.43 441.896 57.0398C441.373 58.3356 441.073 59.7163 441.009 61.1194C440.91 62.2557 440.861 63.4887 440.773 64.6705C440.715 65.5368 440.603 66.3984 440.44 67.25C440.238 68.4733 439.693 69.6077 438.874 70.5114C438.425 70.9651 437.885 71.3104 437.292 71.5228C436.608 71.7611 435.89 71.8764 435.168 71.8637C435.009 71.8637 434.845 71.8637 434.681 71.8637C433.677 71.8378 432.702 71.5166 431.867 70.9375C431.309 70.5251 430.84 69.9945 430.493 69.3807C429.964 68.4067 429.62 67.3361 429.481 66.2273C429.305 64.9801 429.225 63.7206 429.24 62.4603C429.24 59.6194 429.503 56.5569 429.503 53.7216C429.553 51.8697 429.36 50.0192 428.928 48.2216C428.736 47.5124 428.441 46.8379 428.052 46.2216C427.696 45.6681 427.227 45.2026 426.678 44.858C425.762 44.3932 424.745 44.1837 423.728 44.25C421.767 44.3163 419.817 44.5731 417.903 45.0171C414.548 45.716 410.661 46.7728 406.715 47.6648C403.269 48.5039 399.76 49.0324 396.226 49.2444C395.849 49.2444 395.476 49.2444 395.132 49.2444H394.584C391.448 49.1762 388.563 48.5569 386.297 46.9035C385.029 45.9999 383.989 44.7938 383.264 43.3864C382.446 41.7288 381.942 39.9233 381.781 38.0682C381.726 37.5645 381.699 37.0581 381.699 36.5512C381.736 34.1061 382.31 31.7021 383.379 29.5228C385.262 25.5455 388.574 21.7046 392.745 18.2103C398.996 12.9716 407.196 8.43754 415.544 5.19891C423.892 1.96027 432.371 4.32131e-05 439.23 4.32131e-05C441.306 -0.0256869 443.378 0.19738 445.404 0.664816C447.126 1.05373 448.756 1.7934 450.2 2.84095C453.84 5.56254 457.71 10.4375 461.542 16.5512C467.3 25.716 472.971 37.6705 477.307 49.3353C479.386 54.862 481.171 60.5031 482.655 66.233C483.912 70.8578 484.724 75.6007 485.08 80.3921C485.08 80.4603 485.08 80.6421 485.08 80.9262C485.074 81.7484 484.954 82.5656 484.724 83.3523C484.127 85.3567 482.861 87.0748 481.155 88.1989C480.647 88.5412 480.115 88.8414 479.562 89.0966C479.061 89.3297 478.547 89.5327 478.024 89.7046ZM483.437 80.9262C483.437 80.8012 483.437 80.7046 483.437 80.6421V80.5682V80.5114C483.191 75.3637 481.795 68.625 479.606 61.2955C476.039 49.5534 471.417 38.1852 465.8 27.341C463.295 22.4419 460.473 17.7246 457.354 13.2216C454.535 9.24436 451.754 6.07959 449.242 4.19322C447.973 3.28776 446.544 2.6524 445.038 2.32391C443.131 1.88713 441.182 1.67932 439.23 1.70459C434.232 1.70459 428.194 2.80118 421.976 4.733C412.67 7.63641 402.91 12.4148 395.559 18.091C392.166 20.6061 389.167 23.6495 386.669 27.1137C384.529 30.2444 383.341 33.4262 383.341 36.5398C383.34 36.9822 383.364 37.4242 383.412 37.8637C383.558 39.5067 384.006 41.1055 384.731 42.5739C385.625 44.3179 387.08 45.6812 388.842 46.4262C390.836 47.2343 392.965 47.6206 395.104 47.5625C399.697 47.5625 405.127 46.3296 410.245 45.0739C412.807 44.4432 415.298 43.8182 417.58 43.3694C419.6 42.899 421.659 42.6308 423.728 42.5682C425.043 42.4936 426.353 42.788 427.521 43.4205C428.273 43.8919 428.918 44.5279 429.41 45.2841C430.133 46.4599 430.613 47.7798 430.816 49.1591C431.057 50.6744 431.166 52.2089 431.145 53.7444C431.145 56.6819 430.882 59.7728 430.882 62.483C430.882 64.7557 431.079 66.7444 431.665 68.0625C431.907 68.6618 432.302 69.1806 432.809 69.5625C433.39 69.9587 434.068 70.1754 434.763 70.1875H435.168C435.936 70.2271 436.698 70.0294 437.358 69.6194C437.791 69.3176 438.137 68.8993 438.359 68.4091C438.841 67.218 439.107 65.9447 439.142 64.6535C439.235 63.5171 439.279 62.3125 439.378 61.0966C439.536 59.2728 439.805 57.4375 440.648 55.8807C441.067 55.0715 441.661 54.3735 442.383 53.841C443.233 53.2632 444.196 52.8869 445.202 52.7387C445.444 52.6984 445.69 52.6775 445.935 52.6762C446.586 52.6725 447.226 52.8407 447.797 53.1648C448.316 53.472 448.774 53.8811 449.143 54.3694C449.902 55.4266 450.472 56.6156 450.829 57.8807C451.635 60.751 452.273 63.6692 452.739 66.6194C453.632 71.4944 454.683 76.8182 456.757 80.983C457.7 82.989 459.045 84.7618 460.704 86.1819C462.47 87.6098 464.595 88.4797 466.824 88.6875C468.266 88.8522 469.715 88.9375 471.165 88.9432C473.517 89.0091 475.862 88.6476 478.095 87.875C480.629 86.9035 481.927 85.483 482.616 84.1478C483.143 83.1609 483.425 82.054 483.437 80.9262Z" fill="black"/>
<path d="M136.75 77.4721C140.505 70.7278 144.912 66.3812 149.57 63.6993C153.995 61.202 158.963 59.9264 164 59.9948C171.329 59.9948 178.418 62.3528 183.766 64.8016C187.023 66.272 190.152 68.0283 193.121 70.0516H193.154C193.292 70.1518 193.456 70.2056 193.625 70.2056C193.793 70.2056 193.957 70.1518 194.095 70.0516H194.128L194.243 69.9721L194.708 69.6539C195.119 69.3812 195.721 68.9891 196.493 68.5175C198.589 67.2373 200.751 66.0765 202.969 65.0403C208.377 62.5118 215.685 59.9948 223.222 59.9948C228.258 59.9264 233.227 61.202 237.652 63.6993C242.31 66.3812 246.716 70.7278 250.472 77.4721C252.526 81.1887 253.585 85.4088 253.537 89.6937C253.537 96.0005 251.484 102.762 248.107 109.58H221.131L213.933 88.5005C213.882 88.3443 213.788 88.2072 213.662 88.1062C213.537 88.0052 213.385 87.9447 213.227 87.9323C213.068 87.9189 212.909 87.9537 212.769 88.0324C212.629 88.1111 212.514 88.2303 212.439 88.3755L193.515 124.608L174.028 94.9891C173.954 94.8783 173.856 94.7867 173.742 94.7217C173.628 94.6566 173.501 94.6198 173.371 94.6141C173.241 94.6112 173.113 94.6401 172.996 94.6983C172.879 94.7565 172.777 94.8425 172.698 94.9493L161.892 109.574H139.126C135.748 102.756 133.696 95.9778 133.701 89.688C133.649 85.4066 134.702 81.1887 136.75 77.4721Z" fill="url(#paint0_linear_118_1631)"/>
<path d="M224.842 141.278C215.12 151.546 204.692 161.068 193.641 169.767L192.634 168.983C191.67 168.222 190.275 167.102 188.545 165.671C185.085 162.83 180.29 158.71 174.964 153.739C164.312 143.813 151.535 130.443 143.062 116.659C141.967 114.875 140.945 113.087 139.996 111.296H162.341C162.467 111.294 162.591 111.264 162.704 111.206C162.817 111.148 162.915 111.064 162.992 110.96L173.355 96.9376L192.962 126.739C193.041 126.86 193.149 126.958 193.276 127.023C193.402 127.088 193.542 127.118 193.683 127.111C193.824 127.103 193.96 127.058 194.079 126.98C194.199 126.902 194.297 126.794 194.364 126.665L213.024 90.9092L219.801 110.75C219.858 110.915 219.963 111.059 220.101 111.16C220.239 111.262 220.404 111.317 220.573 111.318H247.258C246.47 112.833 245.623 114.333 244.718 115.818C239.37 124.693 232.183 133.466 224.842 141.278Z" fill="url(#paint1_linear_118_1631)"/>
<path d="M139.98 111.301C140.921 113.092 141.943 114.88 143.045 116.664C151.519 130.42 164.295 143.818 174.947 153.744C180.274 158.71 185.069 162.835 188.528 165.676C190.258 167.108 191.654 168.227 192.617 168.988L193.625 169.772C204.676 161.073 215.104 151.552 224.826 141.284C232.15 133.471 239.354 124.699 244.707 115.806C245.613 114.291 246.459 112.791 247.247 111.306H249.152C248.058 113.405 246.875 115.498 245.605 117.585C236.989 131.568 224.131 145.028 213.418 155.017C202.706 165.005 194.145 171.494 194.134 171.522C193.993 171.63 193.822 171.689 193.646 171.689C193.471 171.689 193.3 171.63 193.159 171.522C182.385 163.094 172.194 153.889 162.664 143.977C155.044 135.988 147.414 126.903 141.671 117.579C140.383 115.496 139.201 113.403 138.124 111.301H139.98Z" fill="black"/>
<path d="M248.134 109.596C251.512 102.778 253.57 95.9996 253.564 89.7099C253.612 85.425 252.554 81.2049 250.499 77.4883C246.744 70.744 242.337 66.3974 237.679 63.7156C233.254 61.2182 228.286 59.9426 223.25 60.011C215.685 60.011 208.377 62.5281 202.996 65.0565C200.778 66.0928 198.616 67.2536 196.52 68.5337C195.748 69.0053 195.146 69.3974 194.736 69.6701L194.271 69.9883L194.156 70.0678H194.123C193.985 70.1681 193.82 70.2218 193.652 70.2218C193.484 70.2218 193.319 70.1681 193.181 70.0678H193.148C190.18 68.0445 187.05 66.2882 183.793 64.8178C178.445 62.369 171.357 60.011 164.027 60.011C158.991 59.9426 154.022 61.2182 149.598 63.7156C144.939 66.3974 140.533 70.744 136.778 77.4883C134.723 81.2049 133.664 85.425 133.712 89.7099C133.712 96.0167 135.759 102.778 139.137 109.596H137.303C134.068 102.869 132.07 96.136 132.07 89.7099C132.021 85.1276 133.155 80.6153 135.354 76.6417C139.23 69.6701 143.861 65.0678 148.798 62.2269C153.468 59.5904 158.712 58.2424 164.027 58.3121C171.942 58.3121 179.442 60.9201 184.981 63.5053C187.985 64.8997 190.884 66.5275 193.652 68.3746C196.42 66.5275 199.319 64.8997 202.323 63.5053C207.862 60.9201 215.362 58.3178 223.277 58.3121C228.592 58.2424 233.836 59.5904 238.506 62.2269C243.432 65.0678 248.074 69.6701 251.95 76.6417C254.149 80.6153 255.283 85.1276 255.234 89.7099C255.234 96.1531 253.236 102.886 250.001 109.596H248.134Z" fill="black"/>
<path d="M692.789 165.556C692.789 165.556 666.919 130.681 679.405 118.238C691.891 105.795 704.837 122.358 704.837 122.358C704.837 122.358 724.302 115.539 728.446 133.005C732.59 150.471 692.789 165.556 692.789 165.556Z" fill="#EC744A"/>
<path d="M144.14 287C153.446 296.869 132.782 322.886 132.782 322.886C132.782 322.886 102.648 310.324 106.238 297.046C109.829 283.767 124.565 289.5 124.565 289.5C124.565 289.5 134.851 277.131 144.14 287Z" fill="#EC744A"/>
<path d="M266.915 111.302H220.578C220.409 111.3 220.244 111.245 220.106 111.143C219.968 111.042 219.864 110.899 219.806 110.733L213.024 90.9095L194.342 126.705C194.275 126.834 194.177 126.942 194.058 127.02C193.938 127.098 193.802 127.143 193.661 127.151C193.52 127.158 193.38 127.128 193.254 127.063C193.128 126.998 193.02 126.9 192.94 126.779L173.333 96.9777L162.97 111C162.893 111.104 162.795 111.188 162.682 111.246C162.569 111.304 162.445 111.335 162.319 111.336H119.217C118.999 111.336 118.791 111.246 118.637 111.086C118.483 110.926 118.396 110.709 118.396 110.483C118.396 110.257 118.483 110.041 118.637 109.881C118.791 109.721 118.999 109.631 119.217 109.631H161.914L172.72 95.0061C172.799 94.8993 172.901 94.8133 173.018 94.755C173.135 94.6968 173.263 94.668 173.393 94.6709C173.523 94.6765 173.65 94.7133 173.764 94.7784C173.878 94.8434 173.976 94.935 174.05 95.0459L193.537 124.665L212.477 88.3981C212.553 88.2529 212.668 88.1337 212.808 88.055C212.947 87.9763 213.106 87.9416 213.265 87.9549C213.423 87.9674 213.575 88.0278 213.7 88.1289C213.826 88.2299 213.92 88.367 213.971 88.5231L221.169 109.603H266.915C267.133 109.603 267.342 109.692 267.496 109.852C267.65 110.012 267.736 110.229 267.736 110.455C267.736 110.681 267.65 110.898 267.496 111.058C267.342 111.217 267.133 111.307 266.915 111.307V111.302Z" fill="white"/>
<path d="M259.482 272.557C261.002 269.13 262.8 265.844 264.857 262.733C264.92 262.643 265 262.566 265.092 262.507C265.184 262.448 265.286 262.409 265.392 262.392C265.499 262.374 265.608 262.378 265.713 262.404C265.818 262.43 265.917 262.477 266.004 262.543C266.091 262.609 266.165 262.691 266.222 262.787C266.278 262.882 266.316 262.988 266.333 263.099C266.35 263.209 266.346 263.322 266.321 263.431C266.296 263.54 266.251 263.643 266.187 263.733V263.773C264.096 266.954 262.277 270.319 260.752 273.83C258.19 279.546 255.721 287.159 255.721 294.949C255.715 297.143 255.922 299.332 256.34 301.483C256.34 301.546 256.34 301.614 256.378 301.682C256.422 301.904 256.38 302.134 256.26 302.323C256.141 302.513 255.954 302.645 255.74 302.691C255.527 302.737 255.305 302.693 255.122 302.569C254.94 302.444 254.813 302.25 254.769 302.029C254.561 301 254.403 299.961 254.298 298.915C254.154 297.595 254.081 296.267 254.079 294.938C254.112 286.523 256.816 278.495 259.482 272.557Z" fill="black"/>
<path d="M486.519 435.272L455.225 439.318C456.697 439.057 458.241 438.789 459.845 438.522C468.269 437.119 478.226 435.727 486.519 435.272Z" fill="#2A6049"/>
<path d="M491.648 433.409C492.459 433.409 493.241 433.409 493.997 433.455C494.105 433.458 494.211 433.484 494.309 433.53C494.407 433.577 494.496 433.643 494.569 433.724C494.643 433.806 494.7 433.902 494.738 434.007C494.776 434.112 494.794 434.223 494.79 434.335C494.787 434.447 494.762 434.557 494.717 434.659C494.673 434.761 494.609 434.853 494.531 434.93C494.452 435.006 494.359 435.066 494.258 435.105C494.157 435.145 494.05 435.163 493.942 435.159C493.208 435.159 492.442 435.119 491.648 435.119C490.034 435.119 488.304 435.176 486.497 435.279C478.204 435.733 468.247 437.125 459.823 438.529C458.219 438.796 456.675 439.063 455.203 439.324C451.973 439.892 449.099 440.46 446.85 440.875C445.207 441.193 443.888 441.443 442.98 441.648L441.939 441.864L441.578 441.943C441.364 441.987 441.142 441.942 440.96 441.818C440.778 441.693 440.65 441.5 440.604 441.279C440.582 441.169 440.582 441.056 440.602 440.946C440.623 440.836 440.664 440.731 440.723 440.638C440.783 440.545 440.859 440.464 440.949 440.402C441.038 440.339 441.139 440.295 441.244 440.273C441.244 440.273 449.264 438.568 459.566 436.864C469.868 435.159 482.463 433.415 491.648 433.409Z" fill="black"/>
<path d="M201.983 607.403H290.875V621.846H201.983V607.403Z" fill="white"/>
<path d="M292.282 623.296C292.128 623.456 291.919 623.546 291.701 623.546H201.173C200.955 623.546 200.747 623.456 200.593 623.296C200.447 623.145 200.363 622.941 200.358 622.728V607.387H202V621.83H290.875V607.387H292.517V622.728C292.511 622.941 292.427 623.144 292.282 623.296Z" fill="black"/>
<path d="M168.215 471.312H324.649C330.021 471.312 335.172 473.527 338.971 477.47C342.769 481.412 344.903 486.759 344.903 492.335V584.659C344.903 590.234 342.769 595.582 338.971 599.524C335.172 603.467 330.021 605.682 324.649 605.682H168.215C162.843 605.682 157.691 603.467 153.893 599.524C150.095 595.582 147.961 590.234 147.961 584.659V492.329C147.961 486.754 150.095 481.407 153.893 477.464C157.691 473.522 162.843 471.307 168.215 471.307V471.312ZM156.27 541.068V578.131C156.27 580.778 156.771 583.4 157.747 585.847C158.723 588.293 160.153 590.516 161.957 592.389C163.76 594.261 165.902 595.747 168.258 596.76C170.615 597.774 173.141 598.295 175.692 598.295H317.172C322.323 598.295 327.263 596.171 330.905 592.391C334.547 588.61 336.593 583.483 336.593 578.136V498.863C336.593 493.517 334.547 488.389 330.905 484.609C327.263 480.828 322.323 478.704 317.172 478.704H175.692C170.541 478.704 165.601 480.828 161.959 484.609C158.316 488.389 156.27 493.517 156.27 498.863V541.068Z" fill="black"/>
<path d="M168.214 469.608H324.649C330.456 469.608 336.025 472.003 340.132 476.265C344.238 480.527 346.545 486.308 346.545 492.336V584.66C346.545 590.687 344.238 596.468 340.132 600.73C336.025 604.992 330.456 607.387 324.649 607.387H168.214C162.407 607.387 156.838 604.992 152.732 600.73C148.626 596.468 146.319 590.687 146.319 584.66V492.33C146.316 488.649 147.177 485.022 148.827 481.763C150.477 478.504 152.866 475.711 155.789 473.625C156.09 473.41 156.391 473.199 156.703 473C160.16 470.778 164.148 469.603 168.214 469.608ZM147.961 584.682C147.961 590.258 150.095 595.605 153.893 599.548C157.691 603.49 162.843 605.705 168.214 605.705H324.649C330.021 605.705 335.172 603.49 338.971 599.548C342.769 595.605 344.903 590.258 344.903 584.682V492.33C344.903 486.754 342.769 481.407 338.971 477.465C335.172 473.522 330.021 471.307 324.649 471.307H168.214C162.843 471.307 157.691 473.522 153.893 477.465C150.095 481.407 147.961 486.754 147.961 492.33V584.682Z" fill="black"/>
<path d="M190.581 552.023C190.668 552.126 190.777 552.206 190.9 552.256C191.023 552.306 191.156 552.325 191.287 552.311C191.418 552.297 191.544 552.251 191.655 552.176C191.765 552.101 191.857 552 191.922 551.881L197.681 541.085H205.202L213.906 556.767C213.983 556.906 214.096 557.02 214.233 557.095C214.369 557.17 214.523 557.204 214.677 557.193C214.831 557.181 214.978 557.125 215.101 557.03C215.225 556.936 215.321 556.807 215.378 556.659L221.345 541.085H242.912L249.453 549.608C249.527 549.703 249.619 549.78 249.724 549.835C249.829 549.89 249.944 549.921 250.061 549.926C250.179 549.931 250.297 549.91 250.406 549.864C250.516 549.818 250.615 549.748 250.696 549.659L258.398 541.108H272.083L278.712 551.529C278.787 551.647 278.889 551.745 279.01 551.812C279.13 551.879 279.265 551.915 279.401 551.915C279.539 551.913 279.673 551.877 279.793 551.808C279.914 551.74 280.016 551.642 280.091 551.523L286.594 541.068H307.975L308.424 541.637C308.5 541.732 308.596 541.808 308.704 541.86C308.812 541.912 308.929 541.938 309.048 541.938H334.579C334.709 541.937 334.836 541.904 334.951 541.841V578.148C334.947 583.04 333.072 587.73 329.738 591.188C326.404 594.646 321.885 596.59 317.172 596.591H175.692C173.357 596.592 171.045 596.115 168.887 595.188C166.73 594.261 164.77 592.901 163.118 591.188C161.467 589.474 160.158 587.439 159.264 585.2C158.371 582.96 157.912 580.56 157.913 578.137V541.921H182.239L190.581 552.023ZM295.949 575.767C295.949 576.625 296.112 577.475 296.429 578.267C296.746 579.06 297.21 579.78 297.796 580.386C298.381 580.991 299.076 581.472 299.84 581.798C300.604 582.125 301.423 582.292 302.25 582.29H308.868C310.534 582.29 312.133 581.603 313.311 580.379C314.49 579.156 315.152 577.497 315.152 575.767C315.152 574.037 314.49 572.378 313.311 571.155C312.133 569.932 310.534 569.244 308.868 569.244H302.25C300.583 569.244 298.985 569.932 297.806 571.155C296.628 572.378 295.966 574.037 295.966 575.767H295.949ZM236.83 575.767C236.83 577.497 237.493 579.156 238.671 580.379C239.85 581.603 241.448 582.29 243.115 582.29H249.749C251.416 582.29 253.014 581.603 254.193 580.379C255.371 579.156 256.033 577.497 256.033 575.767C256.033 574.037 255.371 572.378 254.193 571.155C253.014 569.932 251.416 569.244 249.749 569.244H243.131C241.464 569.244 239.866 569.932 238.687 571.155C237.509 572.378 236.847 574.037 236.847 575.767H236.83ZM177.712 575.767C177.712 577.497 178.374 579.156 179.552 580.379C180.731 581.603 182.329 582.29 183.996 582.29H190.63C192.297 582.29 193.895 581.603 195.074 580.379C196.252 579.156 196.914 577.497 196.914 575.767C196.914 574.037 196.252 572.378 195.074 571.155C193.895 569.932 192.297 569.244 190.63 569.244H184.012C183.186 569.242 182.367 569.409 181.602 569.736C180.838 570.063 180.143 570.543 179.558 571.149C178.973 571.755 178.509 572.475 178.192 573.267C177.875 574.06 177.712 574.909 177.712 575.767Z" fill="white"/>
<path d="M317.276 540.216H309.431L296.409 524.182C296.327 524.08 296.222 523.999 296.104 523.947C295.986 523.895 295.858 523.872 295.73 523.881C295.602 523.89 295.478 523.931 295.368 523.999C295.258 524.067 295.165 524.161 295.095 524.273L284.635 541.068H274.026L267.216 530.341C267.149 530.233 267.058 530.143 266.952 530.077C266.846 530.011 266.726 529.971 266.603 529.96C266.479 529.949 266.355 529.967 266.239 530.013C266.124 530.06 266.02 530.133 265.935 530.227L256.164 541.068H245.03L228.899 520.153C228.81 520.036 228.693 519.945 228.559 519.89C228.425 519.835 228.28 519.817 228.138 519.839C227.995 519.861 227.861 519.921 227.749 520.015C227.636 520.108 227.55 520.23 227.497 520.369L219.56 541.068H207.08L202.044 532.006C201.972 531.874 201.868 531.765 201.743 531.689C201.617 531.614 201.474 531.574 201.329 531.574C201.184 531.574 201.041 531.614 200.916 531.689C200.79 531.765 200.686 531.874 200.615 532.006L195.787 541.057H183.684L183.224 540.489C183.148 540.394 183.053 540.317 182.945 540.265C182.837 540.213 182.719 540.187 182.6 540.187H157.896V498.864C157.896 493.969 159.769 489.274 163.103 485.812C166.437 482.35 170.96 480.405 175.676 480.403H317.172C321.887 480.406 326.408 482.352 329.742 485.814C333.076 489.275 334.95 493.969 334.951 498.864V540.341C334.835 540.28 334.708 540.247 334.579 540.244L317.276 540.216Z" fill="white"/>
<path d="M175.692 478.722H317.172C322.32 478.722 327.257 480.843 330.899 484.62C334.541 488.397 336.589 493.52 336.593 498.864V578.114C336.596 580.763 336.096 583.387 335.121 585.835C334.146 588.284 332.716 590.509 330.913 592.383C329.109 594.257 326.967 595.744 324.609 596.759C322.251 597.773 319.724 598.296 317.172 598.296H175.692C170.541 598.296 165.601 596.172 161.959 592.391C158.317 588.611 156.27 583.483 156.27 578.136V541.068C156.27 541.294 156.357 541.511 156.511 541.671C156.665 541.831 156.874 541.921 157.091 541.921H157.913V578.131C157.911 580.555 158.37 582.956 159.263 585.196C160.156 587.436 161.465 589.471 163.116 591.185C164.768 592.9 166.728 594.26 168.886 595.187C171.044 596.115 173.356 596.592 175.692 596.591H317.172C321.887 596.59 326.408 594.645 329.742 591.184C333.076 587.724 334.95 583.03 334.951 578.136V541.83C335.086 541.759 335.199 541.651 335.278 541.518C335.357 541.384 335.399 541.231 335.399 541.074C335.399 540.917 335.357 540.764 335.278 540.63C335.199 540.497 335.086 540.389 334.951 540.318V498.864C334.95 493.969 333.076 489.276 329.742 485.814C326.408 482.353 321.887 480.407 317.172 480.404H175.692C170.976 480.405 166.454 482.351 163.12 485.812C159.786 489.274 157.913 493.969 157.913 498.864V540.199H157.091C156.874 540.199 156.665 540.289 156.511 540.449C156.357 540.608 156.27 540.825 156.27 541.051V498.864C156.275 493.52 158.323 488.397 161.965 484.62C165.606 480.843 170.544 478.722 175.692 478.722Z" fill="black"/>
<path d="M191.057 549.977L183.7 541.068H195.809L191.057 549.977Z" fill="white"/>
<path d="M201.365 534.165L205.197 541.068H197.681L201.365 534.165Z" fill="white"/>
<path d="M250.143 547.733L245.014 541.068H256.148L250.143 547.733Z" fill="white"/>
<path d="M219.577 541.068L214.48 554.375L207.096 541.068H219.577Z" fill="white"/>
<path d="M279.385 549.5L274.026 541.068H284.634L279.385 549.5Z" fill="white"/>
<path d="M228.516 522.363L242.912 541.068H221.345L228.516 522.363Z" fill="white"/>
<path d="M266.406 532.182L272.055 541.068H258.398L266.406 532.182Z" fill="white"/>
<path d="M295.873 526.165L307.975 541.068H286.589L295.873 526.165Z" fill="white"/>
<path d="M157.091 540.216H182.616C182.735 540.215 182.853 540.242 182.961 540.294C183.069 540.346 183.164 540.422 183.24 540.517L183.7 541.085L191.057 550L195.803 541.091L200.631 532.04C200.703 531.909 200.807 531.8 200.932 531.724C201.058 531.648 201.2 531.608 201.346 531.608C201.491 531.608 201.633 531.648 201.759 531.724C201.884 531.8 201.988 531.909 202.06 532.04L207.096 541.102L214.48 554.409L219.593 541.068L227.53 520.369C227.582 520.23 227.669 520.108 227.782 520.015C227.894 519.922 228.028 519.861 228.171 519.839C228.313 519.817 228.458 519.835 228.592 519.89C228.725 519.945 228.843 520.036 228.932 520.154L245.03 541.068L250.143 547.727L256.164 541.063L265.919 530.227C266.003 530.133 266.107 530.06 266.223 530.014C266.339 529.967 266.463 529.949 266.586 529.96C266.71 529.971 266.829 530.011 266.935 530.077C267.042 530.143 267.132 530.233 267.2 530.341L274.026 541.068L279.385 549.5L284.635 541.068L295.095 524.273C295.165 524.161 295.258 524.067 295.368 523.999C295.478 523.931 295.602 523.891 295.73 523.881C295.858 523.872 295.986 523.895 296.104 523.947C296.222 523.999 296.327 524.08 296.409 524.182L309.431 540.216H334.579C334.708 540.219 334.835 540.252 334.951 540.313C335.086 540.383 335.199 540.491 335.278 540.625C335.357 540.758 335.399 540.912 335.399 541.068C335.399 541.225 335.357 541.379 335.278 541.512C335.199 541.645 335.086 541.753 334.951 541.824C334.836 541.887 334.709 541.92 334.579 541.921H309.048C308.929 541.921 308.812 541.895 308.704 541.843C308.596 541.791 308.5 541.714 308.424 541.619L307.975 541.051L295.873 526.148L286.567 541.051L280.064 551.506C279.988 551.625 279.886 551.723 279.766 551.791C279.646 551.859 279.511 551.896 279.374 551.898C279.237 551.898 279.103 551.862 278.982 551.795C278.862 551.728 278.76 551.63 278.684 551.512L272.033 541.051L266.384 532.165L258.376 541.051L250.674 549.602C250.593 549.691 250.494 549.761 250.384 549.807C250.275 549.853 250.157 549.874 250.039 549.869C249.922 549.864 249.807 549.833 249.702 549.778C249.598 549.723 249.505 549.646 249.432 549.551L242.89 541.029L228.494 522.324L221.323 541.029L215.356 556.602C215.299 556.751 215.203 556.879 215.08 556.974C214.956 557.068 214.809 557.124 214.656 557.137C214.501 557.147 214.347 557.113 214.211 557.038C214.074 556.963 213.961 556.849 213.884 556.71L205.18 541.029L201.348 534.125L197.664 541.029L191.906 551.824C191.841 551.943 191.749 552.044 191.639 552.119C191.528 552.194 191.402 552.241 191.271 552.255C191.139 552.268 191.007 552.25 190.884 552.199C190.761 552.149 190.652 552.069 190.565 551.966L182.222 541.864H157.075C156.857 541.864 156.648 541.774 156.494 541.614C156.34 541.454 156.254 541.238 156.254 541.012C156.254 540.785 156.34 540.569 156.494 540.409C156.648 540.249 156.857 540.159 157.075 540.159L157.091 540.216Z" fill="black"/>
<path d="M302.25 569.244H308.868C310.534 569.244 312.133 569.931 313.311 571.155C314.49 572.378 315.152 574.037 315.152 575.767C315.152 577.497 314.49 579.156 313.311 580.379C312.133 581.602 310.534 582.29 308.868 582.29H302.25C300.583 582.29 298.985 581.602 297.806 580.379C296.628 579.156 295.966 577.497 295.966 575.767C295.966 574.037 296.628 572.378 297.806 571.155C298.985 569.931 300.583 569.244 302.25 569.244ZM297.608 575.767C297.607 576.4 297.727 577.027 297.96 577.612C298.193 578.197 298.535 578.728 298.966 579.175C299.397 579.623 299.909 579.978 300.472 580.22C301.036 580.462 301.64 580.586 302.25 580.585H308.868C309.477 580.586 310.081 580.462 310.645 580.22C311.208 579.978 311.72 579.623 312.152 579.175C312.583 578.728 312.925 578.197 313.158 577.612C313.391 577.027 313.51 576.4 313.51 575.767C313.51 574.489 313.021 573.264 312.15 572.36C311.279 571.456 310.099 570.949 308.868 570.949H302.25C301.019 570.949 299.838 571.456 298.967 572.36C298.097 573.264 297.608 574.489 297.608 575.767Z" fill="black"/>
<path d="M243.131 570.949H249.749C250.98 570.949 252.161 571.457 253.031 572.36C253.902 573.264 254.391 574.49 254.391 575.767C254.392 576.4 254.272 577.027 254.039 577.612C253.806 578.197 253.464 578.728 253.033 579.176C252.602 579.624 252.09 579.978 251.526 580.22C250.963 580.462 250.359 580.586 249.749 580.586H243.131C242.521 580.586 241.917 580.462 241.354 580.22C240.79 579.978 240.278 579.624 239.847 579.176C239.416 578.728 239.074 578.197 238.841 577.612C238.608 577.027 238.488 576.4 238.489 575.767C238.489 574.49 238.978 573.264 239.849 572.36C240.719 571.457 241.9 570.949 243.131 570.949Z" fill="white"/>
<path d="M243.131 569.244H249.749C251.416 569.244 253.014 569.931 254.193 571.155C255.371 572.378 256.033 574.037 256.033 575.767C256.033 577.497 255.371 579.156 254.193 580.379C253.014 581.602 251.416 582.29 249.749 582.29H243.131C241.464 582.29 239.866 581.602 238.687 580.379C237.509 579.156 236.847 577.497 236.847 575.767C236.847 574.037 237.509 572.378 238.687 571.155C239.866 569.931 241.464 569.244 243.131 569.244ZM238.489 575.767C238.488 576.4 238.608 577.027 238.841 577.612C239.074 578.197 239.416 578.728 239.847 579.175C240.278 579.623 240.79 579.978 241.354 580.22C241.917 580.462 242.521 580.586 243.131 580.585H249.749C250.359 580.586 250.963 580.462 251.526 580.22C252.09 579.978 252.602 579.623 253.033 579.175C253.464 578.728 253.806 578.197 254.039 577.612C254.272 577.027 254.392 576.4 254.391 575.767C254.391 574.489 253.902 573.264 253.031 572.36C252.161 571.456 250.98 570.949 249.749 570.949H243.131C241.9 570.949 240.719 571.456 239.849 572.36C238.978 573.264 238.489 574.489 238.489 575.767Z" fill="black"/>
<path d="M184.012 570.949H190.647C191.878 570.949 193.059 571.457 193.929 572.36C194.8 573.264 195.289 574.49 195.289 575.767C195.289 576.4 195.17 577.027 194.937 577.612C194.704 578.197 194.362 578.728 193.931 579.176C193.499 579.624 192.987 579.978 192.424 580.22C191.86 580.462 191.257 580.586 190.647 580.586H184.012C183.403 580.586 182.799 580.462 182.235 580.22C181.672 579.978 181.16 579.624 180.728 579.176C180.297 578.728 179.955 578.197 179.722 577.612C179.489 577.027 179.37 576.4 179.37 575.767C179.37 575.135 179.49 574.508 179.724 573.924C179.957 573.339 180.299 572.808 180.73 572.36C181.161 571.913 181.673 571.558 182.236 571.316C182.799 571.074 183.403 570.949 184.012 570.949Z" fill="white"/>
<path d="M190.63 569.244C192.297 569.244 193.895 569.931 195.074 571.155C196.252 572.378 196.914 574.037 196.914 575.767C196.914 577.497 196.252 579.156 195.074 580.379C193.895 581.602 192.297 582.29 190.63 582.29H184.012C182.346 582.29 180.747 581.602 179.569 580.379C178.39 579.156 177.728 577.497 177.728 575.767C177.728 574.037 178.39 572.378 179.569 571.155C180.747 569.931 182.346 569.244 184.012 569.244H190.63ZM179.354 575.767C179.353 576.4 179.473 577.027 179.706 577.612C179.939 578.197 180.281 578.728 180.712 579.175C181.143 579.623 181.655 579.978 182.219 580.22C182.782 580.462 183.386 580.586 183.996 580.585H190.63C191.24 580.586 191.844 580.462 192.408 580.22C192.971 579.978 193.483 579.623 193.914 579.175C194.345 578.728 194.687 578.197 194.92 577.612C195.153 577.027 195.273 576.4 195.272 575.767C195.272 574.489 194.783 573.264 193.913 572.36C193.042 571.456 191.861 570.949 190.63 570.949H184.012C183.403 570.949 182.799 571.073 182.236 571.315C181.673 571.558 181.161 571.913 180.73 572.36C180.299 572.807 179.957 573.338 179.724 573.923C179.491 574.508 179.37 575.134 179.37 575.767H179.354Z" fill="black"/>
</g>
<defs>
<linearGradient id="paint0_linear_118_1631" x1="133.699" y1="98.5983" x2="253.539" y2="98.5983" gradientUnits="userSpaceOnUse">
<stop stop-color="#007D6E"/>
<stop offset="1" stop-color="#5EB47C"/>
</linearGradient>
<linearGradient id="paint1_linear_118_1631" x1="139.996" y1="138.024" x2="247.258" y2="138.024" gradientUnits="userSpaceOnUse">
<stop stop-color="#007D6E"/>
<stop offset="1" stop-color="#5EB47C"/>
</linearGradient>
<clipPath id="clip0_118_1631">
<rect width="796" height="625" fill="white" transform="matrix(-1 0 0 1 796 0)"/>
</clipPath>
</defs>
</svg>
