<svg width="23" height="27" viewBox="0 0 23 27" fill="none" xmlns="http://www.w3.org/2000/svg">
<path fill-rule="evenodd" clip-rule="evenodd" d="M11.3327 0.666748C17.398 0.666748 22.3327 5.63875 22.3327 11.7507C22.3327 19.2641 13.7247 26.6667 11.3327 26.6667C8.94066 26.6667 0.332664 19.2641 0.332664 11.7507C0.332664 5.63875 5.26733 0.666748 11.3327 0.666748ZM11.3327 2.66675C6.37 2.66675 2.33266 6.74275 2.33266 11.7507C2.33266 18.1227 9.83133 24.3307 11.3327 24.6614C12.834 24.3294 20.3327 18.1214 20.3327 11.7507C20.3327 6.74275 16.2953 2.66675 11.3327 2.66675ZM11.334 7.33342C13.7233 7.33342 15.6673 9.27742 15.6673 11.6681C15.6673 14.0574 13.7233 16.0001 11.334 16.0001C8.94466 16.0001 7.00067 14.0574 7.00067 11.6681C7.00067 9.27742 8.94466 7.33342 11.334 7.33342ZM11.334 9.33342C10.0473 9.33342 9.00067 10.3801 9.00067 11.6681C9.00067 12.9547 10.0473 14.0001 11.334 14.0001C12.6207 14.0001 13.6673 12.9547 13.6673 11.6681C13.6673 10.3801 12.6207 9.33342 11.334 9.33342Z" fill="white"/>
</svg>
