<svg width="29" height="27" viewBox="0 0 29 27" fill="none" xmlns="http://www.w3.org/2000/svg">
<path fill-rule="evenodd" clip-rule="evenodd" d="M21.2119 0.666748C25.6519 0.666748 28.9999 4.28942 28.9999 9.09342V18.2507C28.9999 20.7094 28.1305 22.9307 26.5505 24.5067C25.1332 25.9187 23.2945 26.6667 21.2332 26.6667H8.09586C6.03853 26.6667 4.2012 25.9201 2.78253 24.5067C1.20253 22.9307 0.333199 20.7094 0.333199 18.2507V9.09342C0.333199 4.28942 3.6812 0.666748 8.1212 0.666748H21.2119ZM21.2119 2.66675H8.1212C4.76786 2.66675 2.3332 5.36942 2.3332 9.09342V18.2507C2.3332 20.1747 2.99453 21.8934 4.19453 23.0894C5.2292 24.1227 6.57987 24.6667 8.09986 24.6667H21.2119C21.2145 24.6641 21.2252 24.6667 21.2332 24.6667C22.7545 24.6667 24.1039 24.1227 25.1385 23.0894C26.3399 21.8934 26.9999 20.1747 26.9999 18.2507V9.09342C26.9999 5.36942 24.5652 2.66675 21.2119 2.66675ZM23.3132 8.83848C23.6612 9.26648 23.5959 9.89581 23.1679 10.2451L17.2425 15.0611C16.4932 15.6558 15.5972 15.9531 14.7025 15.9531C13.8105 15.9531 12.9212 15.6585 12.1772 15.0691L6.1972 10.2478C5.76653 9.90115 5.69986 9.27048 6.0452 8.84115C6.3932 8.41315 7.02253 8.34515 7.45187 8.69048L13.4265 13.5065C14.1772 14.1011 15.2345 14.1011 15.9905 13.5011L21.9052 8.69315C22.3345 8.34248 22.9639 8.40915 23.3132 8.83848Z" fill="white"/>
</svg>
