<svg width="1921" height="743" viewBox="0 0 1921 743" fill="none" xmlns="http://www.w3.org/2000/svg">
<g clip-path="url(#clip0_376_1275)">
<rect width="1921" height="743" fill="#CC7655"/>
<path d="M1413.05 -552.335C1286.22 -494.13 1240.51 -375.851 1246.06 -236.406C1251.07 -110.303 1296.42 -20.3451 1404.1 45.4733C1550.55 134.99 1718.06 91.2641 1836.58 -32.8984C1932.6 -133.502 1809.51 -306.83 1929.82 -376.599C2031.57 -435.607 2130.27 -279.277 2229.13 -343.01C2352.31 -422.421 2340.63 -592.253 2263.27 -716.731C2194.92 -826.731 2092.51 -884.991 1965.08 -861.849C1797.67 -831.444 1915.44 -538.089 1755.58 -479.817C1627.12 -432.992 1537.32 -609.362 1413.05 -552.335Z" stroke="white" stroke-opacity="0.5" stroke-width="0.5"/>
<path d="M1424.52 -531.838C1297.68 -473.633 1251.98 -355.353 1257.52 -215.909C1262.53 -89.8057 1307.88 0.151965 1415.57 65.9704C1562.02 155.487 1729.53 111.761 1848.04 -12.4013C1944.07 -113.005 1820.98 -286.333 1941.29 -356.102C2043.04 -415.11 2141.74 -258.78 2240.6 -322.513C2363.77 -401.923 2352.09 -571.756 2274.74 -696.234C2206.38 -806.234 2103.97 -864.494 1976.55 -841.352C1809.13 -810.947 1926.91 -517.591 1767.04 -459.32C1638.58 -412.495 1548.79 -588.865 1424.52 -531.838Z" stroke="white" stroke-opacity="0.5" stroke-width="0.5"/>
<path d="M1435.98 -511.34C1309.15 -453.135 1263.44 -334.855 1268.98 -195.411C1274 -69.3077 1319.35 20.65 1427.03 86.4684C1573.48 175.985 1740.99 132.259 1859.51 8.09673C1955.53 -92.5068 1832.44 -265.835 1952.75 -335.604C2054.5 -394.612 2153.2 -238.282 2252.06 -302.015C2375.24 -381.425 2363.56 -551.258 2286.2 -675.736C2217.85 -785.736 2115.44 -843.996 1988.01 -820.854C1820.6 -790.449 1938.37 -497.093 1778.51 -438.821C1650.05 -391.996 1560.25 -568.367 1435.98 -511.34Z" stroke="white" stroke-opacity="0.5" stroke-width="0.5"/>
<path d="M1447.45 -490.843C1320.61 -432.637 1274.91 -314.358 1280.45 -174.914C1285.46 -48.8101 1330.81 41.1476 1438.49 106.966C1584.95 196.483 1752.46 152.757 1870.97 28.5943C1967 -72.0092 1843.91 -245.337 1964.21 -315.107C2065.96 -374.114 2164.67 -217.784 2263.53 -281.518C2386.7 -360.928 2375.02 -530.76 2297.67 -655.239C2229.31 -765.239 2126.9 -823.498 1999.48 -800.356C1832.06 -769.952 1949.84 -476.596 1789.97 -418.324C1661.51 -371.499 1571.72 -547.87 1447.45 -490.843Z" stroke="white" stroke-opacity="0.5" stroke-width="0.5"/>
<path d="M1458.91 -470.345C1332.08 -412.139 1286.37 -293.86 1291.91 -154.415C1296.93 -28.3121 1342.28 61.6456 1449.96 127.464C1596.41 216.981 1763.92 173.255 1882.44 49.0923C1978.46 -51.5112 1855.37 -224.839 1975.68 -294.609C2077.43 -353.616 2176.13 -197.286 2274.99 -261.02C2398.17 -340.43 2386.49 -510.262 2309.13 -634.741C2240.78 -744.741 2138.37 -803 2010.94 -779.858C1843.53 -749.454 1961.3 -456.098 1801.44 -397.826C1672.98 -351.001 1583.18 -527.372 1458.91 -470.345Z" stroke="white" stroke-opacity="0.5" stroke-width="0.5"/>
<path d="M1470.38 -449.846C1343.54 -391.641 1297.84 -273.361 1303.38 -133.917C1308.39 -7.81352 1353.74 82.1442 1461.42 147.963C1607.87 237.479 1775.39 193.753 1893.9 69.5909C1989.93 -31.0126 1866.83 -204.341 1987.14 -274.11C2088.89 -333.118 2187.6 -176.788 2286.46 -240.521C2409.63 -319.931 2397.95 -489.764 2320.6 -614.242C2252.24 -724.242 2149.83 -782.502 2022.41 -759.36C1854.99 -728.955 1972.77 -435.599 1812.9 -377.327C1684.44 -330.502 1594.65 -506.873 1470.38 -449.846Z" stroke="white" stroke-opacity="0.5" stroke-width="0.5"/>
<path d="M1485.83 -423.396C1358.99 -365.19 1313.29 -246.911 1318.83 -107.466C1323.84 18.6372 1369.19 108.595 1476.87 174.413C1623.33 263.93 1790.84 220.204 1909.35 96.0416C2005.38 -4.56196 1882.29 -177.89 2002.59 -247.66C2104.34 -306.667 2203.05 -150.337 2301.91 -214.071C2425.08 -293.481 2413.4 -463.313 2336.05 -587.792C2267.69 -697.792 2165.28 -756.051 2037.86 -732.909C1870.44 -702.504 1988.22 -409.149 1828.35 -350.877C1699.89 -304.052 1610.1 -480.422 1485.83 -423.396Z" stroke="white" stroke-opacity="0.5" stroke-width="0.5"/>
<path d="M1501.28 -396.945C1374.44 -338.74 1328.74 -220.46 1334.28 -81.0156C1339.29 45.0878 1384.64 135.046 1492.33 200.864C1638.78 290.381 1806.29 246.655 1924.8 122.492C2020.83 21.8887 1897.74 -151.439 2018.05 -221.209C2119.8 -280.216 2218.5 -123.887 2317.36 -187.62C2440.53 -267.03 2428.85 -436.862 2351.5 -561.341C2283.14 -671.341 2180.73 -729.6 2053.31 -706.459C1885.89 -676.054 2003.67 -382.698 1843.8 -324.426C1715.34 -277.601 1625.55 -453.972 1501.28 -396.945Z" stroke="white" stroke-opacity="0.5" stroke-width="0.5"/>
<path d="M1516.73 -370.494C1389.89 -312.288 1344.19 -194.009 1349.73 -54.5644C1354.74 71.539 1400.1 161.497 1507.78 227.315C1654.23 316.832 1821.74 273.106 1940.25 148.943C2036.28 48.3399 1913.19 -124.988 2033.5 -194.758C2135.25 -253.765 2233.95 -97.4354 2332.81 -161.169C2455.99 -240.579 2444.3 -410.411 2366.95 -534.89C2298.6 -644.89 2196.18 -703.149 2068.76 -680.007C1901.34 -649.603 2019.12 -356.247 1859.25 -297.975C1730.79 -251.15 1641 -427.521 1516.73 -370.494Z" stroke="white" stroke-opacity="0.5" stroke-width="0.5"/>
<path d="M1532.18 -344.042C1405.34 -285.837 1359.64 -167.558 1365.18 -28.1132C1370.19 97.9902 1415.55 187.948 1523.23 253.766C1669.68 343.283 1837.19 299.557 1955.7 175.395C2051.73 74.7911 1928.64 -98.5368 2048.95 -168.306C2150.7 -227.314 2249.4 -70.9842 2348.26 -134.717C2471.44 -214.128 2459.75 -383.96 2382.4 -508.439C2314.05 -618.439 2211.64 -676.698 2084.21 -653.556C1916.8 -623.151 2034.57 -329.796 1874.71 -271.524C1746.24 -224.699 1656.45 -401.069 1532.18 -344.042Z" stroke="white" stroke-opacity="0.5" stroke-width="0.5"/>
<path d="M1547.63 -317.592C1420.8 -259.387 1375.09 -141.107 1380.63 -1.66305C1385.65 124.44 1431 214.398 1538.68 280.216C1685.13 369.733 1852.64 326.007 1971.16 201.845C2067.18 101.241 1944.09 -72.0866 2064.4 -141.856C2166.15 -200.864 2264.85 -44.534 2363.71 -108.267C2486.89 -187.677 2475.21 -357.51 2397.85 -481.988C2329.5 -591.988 2227.09 -650.248 2099.66 -627.106C1932.25 -596.701 2050.02 -303.345 1890.16 -245.073C1761.7 -198.248 1671.9 -374.619 1547.63 -317.592Z" stroke="white" stroke-opacity="0.5" stroke-width="0.5"/>
<path d="M1563.08 -291.141C1436.25 -232.935 1390.54 -114.656 1396.09 24.7886C1401.1 150.892 1446.45 240.85 1554.13 306.668C1700.58 396.185 1868.09 352.459 1986.61 228.296C2082.63 127.693 1959.54 -45.6349 2079.85 -115.405C2181.6 -174.412 2280.3 -18.0823 2379.16 -81.8156C2502.34 -161.226 2490.66 -331.058 2413.3 -455.537C2344.95 -565.537 2242.54 -623.796 2115.11 -600.654C1947.7 -570.25 2065.47 -276.894 1905.61 -218.622C1777.15 -171.797 1687.35 -348.168 1563.08 -291.141Z" stroke="white" stroke-opacity="0.5" stroke-width="0.5"/>
<path d="M1578.54 -264.69C1451.7 -206.485 1405.99 -88.205 1411.54 51.2393C1416.55 177.343 1461.9 267.3 1569.58 333.119C1716.03 422.636 1883.55 378.91 2002.06 254.747C2098.08 154.144 1974.99 -19.1843 2095.3 -88.9539C2197.05 -147.962 2295.76 8.36835 2394.61 -55.365C2517.79 -134.775 2506.11 -304.607 2428.76 -429.086C2360.4 -539.086 2257.99 -597.345 2130.57 -574.204C1963.15 -543.799 2080.93 -250.443 1921.06 -192.171C1792.6 -145.346 1702.8 -321.717 1578.54 -264.69Z" stroke="white" stroke-opacity="0.5" stroke-width="0.5"/>
<path d="M1593.99 -238.239C1467.15 -180.034 1421.45 -61.7544 1426.99 77.69C1432 203.793 1477.35 293.751 1585.03 359.569C1731.48 449.086 1899 405.36 2017.51 281.198C2113.53 180.594 1990.44 7.26642 2110.75 -62.5033C2212.5 -121.511 2311.21 34.819 2410.07 -28.9143C2533.24 -108.324 2521.56 -278.157 2444.21 -402.635C2375.85 -512.635 2273.44 -570.895 2146.02 -547.753C1978.6 -517.348 2096.38 -223.992 1936.51 -165.72C1808.05 -118.895 1718.26 -295.266 1593.99 -238.239Z" stroke="white" stroke-opacity="0.5" stroke-width="0.5"/>
<path d="M1609.44 -211.789C1482.6 -153.583 1436.9 -35.3037 1442.44 104.141C1447.45 230.244 1492.8 320.202 1600.48 386.02C1746.94 475.537 1914.45 431.811 2032.96 307.648C2128.99 207.045 2005.9 33.7171 2126.2 -36.0526C2227.95 -95.0602 2326.66 61.2697 2425.52 -2.46359C2548.69 -81.8736 2537.01 -251.706 2459.66 -376.185C2391.3 -486.185 2288.89 -544.444 2161.47 -521.302C1994.05 -490.898 2111.83 -197.542 1951.96 -139.27C1823.5 -92.4447 1733.71 -268.816 1609.44 -211.789Z" stroke="white" stroke-opacity="0.5" stroke-width="0.5"/>
<path d="M1624.89 -185.337C1498.05 -127.132 1452.35 -8.85201 1457.89 130.592C1462.9 256.696 1508.25 346.653 1615.93 412.472C1762.39 501.989 1929.9 458.263 2048.41 334.1C2144.44 233.497 2021.35 60.1688 2141.66 -9.60092C2243.41 -68.6085 2342.11 87.7214 2440.97 23.9881C2564.14 -55.422 2552.46 -225.254 2475.11 -349.733C2406.75 -459.733 2304.34 -517.992 2176.92 -494.851C2009.5 -464.446 2127.28 -171.09 1967.41 -112.818C1838.95 -65.9931 1749.16 -242.364 1624.89 -185.337Z" stroke="white" stroke-opacity="0.5" stroke-width="0.5"/>
<path d="M1640.34 -158.886C1513.5 -100.681 1467.8 17.5987 1473.34 157.043C1478.35 283.146 1523.71 373.104 1631.39 438.923C1777.84 528.439 1945.35 484.713 2063.86 360.551C2159.89 259.947 2036.8 86.6195 2157.11 16.8498C2258.86 -42.1578 2357.56 114.172 2456.42 50.4388C2579.6 -28.9713 2567.91 -198.804 2490.56 -323.282C2422.21 -433.282 2319.79 -491.542 2192.37 -468.4C2024.95 -437.995 2142.73 -144.639 1982.86 -86.3674C1854.4 -39.5424 1764.61 -215.913 1640.34 -158.886Z" stroke="white" stroke-opacity="0.5" stroke-width="0.5"/>
<path d="M1655.79 -132.436C1528.95 -74.2303 1483.25 44.0494 1488.79 183.494C1493.8 309.597 1539.16 399.555 1646.84 465.373C1793.29 554.89 1960.8 511.164 2079.31 387.002C2175.34 286.398 2052.25 113.07 2172.56 43.3004C2274.31 -15.7071 2373.01 140.623 2471.87 76.8894C2595.05 -2.52062 2583.36 -172.353 2506.01 -296.832C2437.66 -406.832 2335.25 -465.091 2207.82 -441.949C2040.41 -411.545 2158.18 -118.189 1998.32 -59.9167C1869.86 -13.0917 1780.06 -189.463 1655.79 -132.436Z" stroke="white" stroke-opacity="0.5" stroke-width="0.5"/>
<path d="M1671.24 -105.984C1544.41 -47.7786 1498.7 70.501 1504.24 209.945C1509.26 336.049 1554.61 426.006 1662.29 491.825C1808.74 581.342 1976.25 537.616 2094.77 413.453C2190.79 312.85 2067.7 139.522 2188.01 69.7521C2289.76 10.7445 2388.46 167.074 2487.32 103.341C2610.5 23.931 2598.81 -145.901 2521.46 -270.38C2453.11 -380.38 2350.7 -438.639 2223.27 -415.498C2055.86 -385.093 2173.63 -91.737 2013.77 -33.465C1885.31 13.36 1795.51 -163.011 1671.24 -105.984Z" stroke="white" stroke-opacity="0.5" stroke-width="0.5"/>
<path d="M716.854 427.903C833.501 460.088 961.028 553.769 977.942 743H-66.0221C-84.7737 534.646 -251.601 265.58 -17.2161 235.198C99.0592 220.126 105.313 351.252 217.23 404.032C426.549 502.747 337.991 323.37 716.854 427.903Z" fill="url(#paint0_linear_376_1275)"/>
</g>
<defs>
<linearGradient id="paint0_linear_376_1275" x1="1161.79" y1="402.204" x2="-335.07" y2="556.832" gradientUnits="userSpaceOnUse">
<stop offset="1" stop-color="#FFFDF8" stop-opacity="0.17"/>
</linearGradient>
<clipPath id="clip0_376_1275">
<rect width="1921" height="743" fill="white"/>
</clipPath>
</defs>
</svg>
