<svg width="1920" height="554" viewBox="0 0 1920 554" fill="none" xmlns="http://www.w3.org/2000/svg">
<g clip-path="url(#clip0_118_1577)">
<rect width="1920" height="554" fill="#CC7655"/>
<path d="M337.731 407.987C89.7148 470.858 2.75402 595.813 17.1071 742.341C30.0871 874.85 121.513 968.824 334.925 1036.59C625.178 1128.77 953.553 1080.58 1183.56 948.476C1369.93 841.438 1123.55 660.844 1358.44 585.901C1557.1 522.518 1755.1 685.565 1947.95 617.252C2188.24 532.136 2161.06 353.742 2005.84 223.899C1868.68 109.158 1665.82 49.2642 1415.78 75.2804C1087.26 109.462 1326.17 416.314 1013.19 479.693C761.699 530.622 580.727 346.388 337.731 407.987Z" stroke="white" stroke-opacity="0.5" stroke-width="0.5"/>
<path d="M360.787 429.384C112.771 492.256 25.8099 617.211 40.163 763.738C53.143 896.247 144.568 990.222 357.981 1057.99C648.234 1150.16 976.609 1101.98 1206.62 969.874C1392.99 862.836 1146.61 682.242 1381.5 607.299C1580.15 543.916 1778.15 706.962 1971.01 638.649C2211.3 553.533 2184.11 375.139 2028.9 245.296C1891.74 130.556 1688.87 70.6619 1438.83 96.6781C1110.32 130.859 1349.22 437.712 1036.25 501.091C784.755 552.019 603.783 367.786 360.787 429.384Z" stroke="white" stroke-opacity="0.5" stroke-width="0.5"/>
<path d="M383.843 450.782C135.826 513.654 48.8651 638.609 63.2182 785.136C76.1981 917.645 167.624 1011.62 381.036 1079.39C671.29 1171.56 999.664 1123.37 1229.68 991.271C1416.04 884.234 1169.66 703.639 1404.55 628.696C1603.21 565.314 1801.21 728.36 1994.06 660.047C2234.35 574.931 2207.17 396.537 2051.95 266.694C1914.79 151.953 1711.93 92.0596 1461.89 118.076C1133.38 152.257 1372.28 459.11 1059.3 522.488C807.81 573.417 626.838 389.183 383.843 450.782Z" stroke="white" stroke-opacity="0.5" stroke-width="0.5"/>
<path d="M406.897 472.18C158.88 535.051 71.9193 660.006 86.2724 806.534C99.2523 939.043 190.678 1033.02 404.09 1100.79C694.344 1192.96 1022.72 1144.77 1252.73 1012.67C1439.1 905.631 1192.71 725.037 1427.61 650.094C1626.26 586.711 1824.26 749.758 2017.12 681.445C2257.41 596.329 2230.22 417.935 2075.01 288.092C1937.84 173.351 1734.98 113.458 1484.94 139.474C1156.43 173.655 1395.33 480.508 1082.36 543.886C830.864 594.815 649.893 410.581 406.897 472.18Z" stroke="white" stroke-opacity="0.5" stroke-width="0.5"/>
<path d="M429.953 493.579C181.936 556.45 94.9755 681.405 109.329 827.933C122.308 960.442 213.734 1054.42 427.146 1122.19C717.4 1214.36 1045.77 1166.17 1275.79 1034.07C1462.15 927.03 1215.77 746.436 1450.66 671.493C1649.32 608.11 1847.32 771.157 2040.17 702.844C2280.46 617.728 2253.28 439.334 2098.06 309.491C1960.9 194.75 1758.04 134.856 1508 160.872C1179.49 195.054 1418.39 501.906 1105.41 565.285C853.92 616.214 672.949 431.98 429.953 493.579Z" stroke="white" stroke-opacity="0.5" stroke-width="0.5"/>
<path d="M453.01 514.977C204.993 577.848 118.032 702.803 132.385 849.331C145.365 981.84 236.791 1075.81 450.203 1143.59C740.457 1235.76 1068.83 1187.57 1298.84 1055.47C1485.21 948.428 1238.83 767.834 1473.72 692.891C1672.38 629.508 1870.37 792.555 2063.23 724.242C2303.52 639.126 2276.34 460.732 2121.12 330.889C1983.96 216.148 1781.1 156.254 1531.06 182.271C1202.54 216.452 1441.44 523.304 1128.47 586.683C876.977 637.612 696.006 453.378 453.01 514.977Z" stroke="white" stroke-opacity="0.5" stroke-width="0.5"/>
<path d="M484.053 542.581C236.036 605.452 149.076 730.407 163.429 876.935C176.409 1009.44 267.834 1103.42 481.246 1171.19C771.5 1263.36 1099.87 1215.17 1329.89 1083.07C1516.25 976.032 1269.87 795.438 1504.76 720.495C1703.42 657.112 1901.42 820.159 2094.27 751.846C2334.56 666.73 2307.38 488.336 2152.16 358.493C2015 243.752 1812.14 183.858 1562.1 209.874C1233.59 244.056 1472.49 550.908 1159.51 614.287C908.02 665.216 727.049 480.982 484.053 542.581Z" stroke="white" stroke-opacity="0.5" stroke-width="0.5"/>
<path d="M515.097 570.184C267.08 633.056 180.12 758.011 194.473 904.538C207.453 1037.05 298.878 1131.02 512.29 1198.79C802.544 1290.96 1130.92 1242.78 1360.93 1110.67C1547.3 1003.64 1300.92 823.042 1535.81 748.099C1734.46 684.716 1932.46 847.762 2125.32 779.449C2365.61 694.333 2338.42 515.94 2183.21 386.096C2046.04 271.356 1843.18 211.462 1593.14 237.478C1264.63 271.659 1503.53 578.512 1190.56 641.891C939.064 692.82 758.093 508.586 515.097 570.184Z" stroke="white" stroke-opacity="0.5" stroke-width="0.5"/>
<path d="M546.141 597.789C298.124 660.66 211.164 785.615 225.517 932.143C238.497 1064.65 329.922 1158.63 543.335 1226.4C833.588 1318.57 1161.96 1270.38 1391.97 1138.28C1578.34 1031.24 1331.96 850.646 1566.85 775.703C1765.51 712.32 1963.51 875.367 2156.36 807.054C2396.65 721.938 2369.47 543.544 2214.25 413.701C2077.09 298.96 1874.23 239.066 1624.19 265.083C1295.67 299.264 1534.58 606.116 1221.6 669.495C970.108 720.424 789.137 536.19 546.141 597.789Z" stroke="white" stroke-opacity="0.5" stroke-width="0.5"/>
<path d="M577.183 625.393C329.166 688.264 242.206 813.219 256.559 959.747C269.539 1092.26 360.964 1186.23 574.377 1254C864.63 1346.17 1193 1297.99 1423.02 1165.88C1609.38 1058.84 1363 878.25 1597.89 803.307C1796.55 739.924 1994.55 902.971 2187.4 834.658C2427.69 749.542 2400.51 571.148 2245.29 441.305C2108.13 326.564 1905.27 266.67 1655.23 292.686C1326.72 326.868 1565.62 633.72 1252.64 697.099C1001.15 748.028 820.179 563.794 577.183 625.393Z" stroke="white" stroke-opacity="0.5" stroke-width="0.5"/>
<path d="M608.227 652.995C360.211 715.867 273.25 840.822 287.603 987.35C300.583 1119.86 392.008 1213.83 605.421 1281.6C895.674 1373.78 1224.05 1325.59 1454.06 1193.48C1640.43 1086.45 1394.05 905.853 1628.94 830.91C1827.59 767.527 2025.59 930.573 2218.45 862.26C2458.74 777.144 2431.55 598.751 2276.34 468.907C2139.18 354.167 1936.31 294.273 1686.27 320.289C1357.76 354.471 1596.66 661.323 1283.69 724.702C1032.19 775.631 851.223 591.397 608.227 652.995Z" stroke="white" stroke-opacity="0.5" stroke-width="0.5"/>
<path d="M639.272 680.6C391.256 743.472 304.295 868.427 318.648 1014.95C331.628 1147.46 423.053 1241.44 636.466 1309.21C926.719 1401.38 1255.09 1353.19 1485.1 1221.09C1671.47 1114.05 1425.09 933.458 1659.98 858.515C1858.64 795.132 2056.64 958.178 2249.49 889.865C2489.78 804.749 2462.6 626.356 2307.38 496.512C2170.22 381.772 1967.36 321.878 1717.32 347.894C1388.8 382.076 1627.71 688.928 1314.73 752.307C1063.24 803.236 882.268 619.002 639.272 680.6Z" stroke="white" stroke-opacity="0.5" stroke-width="0.5"/>
<path d="M670.315 708.205C422.299 771.077 335.338 896.032 349.691 1042.56C362.671 1175.07 454.097 1269.04 667.509 1336.81C957.762 1428.99 1286.14 1380.8 1516.15 1248.69C1702.52 1141.66 1456.13 961.063 1691.02 886.12C1889.68 822.737 2087.68 985.783 2280.53 917.47C2520.83 832.354 2493.64 653.96 2338.43 524.117C2201.26 409.376 1998.4 349.483 1748.36 375.499C1419.85 409.68 1658.75 716.533 1345.78 779.912C1094.28 830.84 913.311 646.606 670.315 708.205Z" stroke="white" stroke-opacity="0.5" stroke-width="0.5"/>
<path d="M701.36 735.808C453.344 798.679 366.383 923.634 380.736 1070.16C393.716 1202.67 485.141 1296.65 698.554 1364.42C988.807 1456.59 1317.18 1408.4 1547.19 1276.3C1733.56 1169.26 1487.18 988.665 1722.07 913.722C1920.73 850.339 2118.72 1013.39 2311.58 945.073C2551.87 859.957 2524.69 681.563 2369.47 551.72C2232.31 436.979 2029.45 377.085 1779.41 403.102C1450.89 437.283 1689.8 744.136 1376.82 807.514C1125.33 858.443 944.356 674.209 701.36 735.808Z" stroke="white" stroke-opacity="0.5" stroke-width="0.5"/>
<path d="M732.405 763.412C484.388 826.283 397.427 951.238 411.78 1097.77C424.76 1230.27 516.186 1324.25 729.598 1392.02C1019.85 1484.19 1348.23 1436 1578.24 1303.9C1764.61 1196.86 1518.22 1016.27 1753.11 941.326C1951.77 877.943 2149.77 1040.99 2342.62 972.677C2582.92 887.561 2555.73 709.167 2400.52 579.324C2263.35 464.583 2060.49 404.689 1810.45 430.705C1481.94 464.887 1720.84 771.739 1407.87 835.118C1156.37 886.047 975.4 701.813 732.405 763.412Z" stroke="white" stroke-opacity="0.5" stroke-width="0.5"/>
<path d="M763.449 791.017C515.432 853.888 428.471 978.843 442.824 1125.37C455.804 1257.88 547.23 1351.85 760.642 1419.62C1050.9 1511.8 1379.27 1463.61 1609.28 1331.51C1795.65 1224.47 1549.27 1043.87 1784.16 968.931C1982.82 905.548 2180.81 1068.59 2373.67 1000.28C2613.96 915.166 2586.78 736.772 2431.56 606.929C2294.4 492.188 2091.54 432.294 1841.5 458.31C1512.98 492.492 1751.88 799.344 1438.91 862.723C1187.42 913.652 1006.44 729.418 763.449 791.017Z" stroke="white" stroke-opacity="0.5" stroke-width="0.5"/>
<path d="M794.492 818.62C546.476 881.491 459.515 1006.45 473.868 1152.97C486.848 1285.48 578.274 1379.46 791.686 1447.23C1081.94 1539.4 1410.31 1491.21 1640.33 1359.11C1826.69 1252.07 1580.31 1071.48 1815.2 996.534C2013.86 933.151 2211.86 1096.2 2404.71 1027.88C2645 942.769 2617.82 764.375 2462.6 634.532C2325.44 519.791 2122.58 459.897 1872.54 485.914C1544.02 520.095 1782.93 826.948 1469.95 890.326C1218.46 941.255 1037.49 757.021 794.492 818.62Z" stroke="white" stroke-opacity="0.5" stroke-width="0.5"/>
<path d="M825.537 846.224C577.52 909.095 490.56 1034.05 504.913 1180.58C517.893 1313.09 609.318 1407.06 822.731 1474.83C1112.98 1567 1441.36 1518.82 1671.37 1386.71C1857.74 1279.68 1611.36 1099.08 1846.25 1024.14C2044.9 960.755 2242.9 1123.8 2435.76 1055.49C2676.05 970.373 2648.86 791.979 2493.65 662.136C2356.48 547.395 2153.62 487.501 1903.58 513.517C1575.07 547.699 1813.97 854.551 1501 917.93C1249.5 968.859 1068.53 784.625 825.537 846.224Z" stroke="white" stroke-opacity="0.5" stroke-width="0.5"/>
<path d="M856.58 873.828C608.563 936.699 521.602 1061.65 535.955 1208.18C548.935 1340.69 640.361 1434.67 853.773 1502.44C1144.03 1594.61 1472.4 1546.42 1702.41 1414.32C1888.78 1307.28 1642.4 1126.69 1877.29 1051.74C2075.95 988.359 2273.94 1151.41 2466.8 1083.09C2707.09 997.977 2679.91 819.583 2524.69 689.74C2387.53 574.999 2184.67 515.105 1934.63 541.122C1606.11 575.303 1845.01 882.156 1532.04 945.534C1280.55 996.463 1099.58 812.229 856.58 873.828Z" stroke="white" stroke-opacity="0.5" stroke-width="0.5"/>
</g>
<defs>
<clipPath id="clip0_118_1577">
<rect width="1920" height="554" fill="white"/>
</clipPath>
</defs>
</svg>
